<svg width="26" height="26" viewBox="0 0 26 26" fill="none" xmlns="http://www.w3.org/2000/svg">
<path d="M14.2426 6.82843L11.4142 4L2 13.4142L11.4142 22.8284L14.2426 20L9.65686 15.4142H22.8284V11.4142H9.65685L14.2426 6.82843Z" fill="white" fill-opacity="0.5"/>
<path d="M11.7678 3.64645L11.4142 3.29289L11.0607 3.64645L1.64645 13.0607L1.29289 13.4142L1.64645 13.7678L11.0607 23.182L11.4142 23.5355L11.7678 23.182L14.5962 20.3536L14.9497 20L14.5962 19.6464L10.864 15.9142H22.8284H23.3284V15.4142V11.4142V10.9142H22.8284H10.864L14.5962 7.18198L14.9497 6.82843L14.5962 6.47487L11.7678 3.64645Z" stroke="#3C3C3C" stroke-opacity="0.4"/>
<path d="M14.2426 6.82843L11.4142 4L2 13.4142L11.4142 22.8284L14.2426 20L9.65686 15.4142H22.8284V11.4142H9.65685L14.2426 6.82843Z" fill="white" fill-opacity="0.5"/>
<path d="M11.7678 3.64645L11.4142 3.29289L11.0607 3.64645L1.64645 13.0607L1.29289 13.4142L1.64645 13.7678L11.0607 23.182L11.4142 23.5355L11.7678 23.182L14.5962 20.3536L14.9497 20L14.5962 19.6464L10.864 15.9142H22.8284H23.3284V15.4142V11.4142V10.9142H22.8284H10.864L14.5962 7.18198L14.9497 6.82843L14.5962 6.47487L11.7678 3.64645Z" stroke="#3C3C3C" stroke-opacity="0.4"/>
</svg>
