<svg width="16" height="19" viewBox="0 0 16 19" fill="none" xmlns="http://www.w3.org/2000/svg">
<path d="M16 11C16 11 13 19 8 19C3 19 0 11 0 11V4L3 3.5C3 3.5 4 1.5 8 0.5C12 1.5 13 3.5 13 3.5L16 4V11Z" fill="url(#paint0_linear_79_23)"/>
<path fill-rule="evenodd" clip-rule="evenodd" d="M6.79792 9.5L3.39896 6.10104L4.60104 4.89896L8 8.29792L11.399 4.89896L12.601 6.10104L9.20208 9.5L12.601 12.899L11.399 14.101L8 10.7021L4.60104 14.101L3.39896 12.899L6.79792 9.5Z" fill="white"/>
<defs>
<linearGradient id="paint0_linear_79_23" x1="8" y1="1" x2="8" y2="19" gradientUnits="userSpaceOnUse">
<stop stop-color="#EA2222"/>
<stop offset="1" stop-color="#B62121"/>
</linearGradient>
</defs>
</svg>
