<svg width="18" height="18" viewBox="0 0 18 18" fill="none" xmlns="http://www.w3.org/2000/svg">
<mask id="path-1-inside-1_156_30" fill="white">
<path d="M0 0H18V18H0V0Z"/>
</mask>
<path d="M0 0H18V18H0V0Z" fill="url(#paint0_linear_156_30)"/>
<path d="M1 18V0H-1V18H1Z" fill="url(#paint1_linear_156_30)" mask="url(#path-1-inside-1_156_30)"/>
<path d="M11.8686 13H13V11.8686L10.6314 9.5L13 7.13138V6H11.8686L9.5 8.36864L7.13137 6H6V7.13138L8.36863 9.5L6 11.8686V13H7.13138L9.5 10.6314L11.8686 13Z" fill="#D9D9D9"/>
<path d="M11.8686 13H13V11.8686L10.6314 9.5L13 7.13138V6H11.8686L9.5 8.36864L7.13137 6H6V7.13138L8.36863 9.5L6 11.8686V13H7.13138L9.5 10.6314L11.8686 13Z" fill="url(#paint2_linear_156_30)"/>
<path d="M13 13.5H13.5V13V11.8686V11.6615L13.3536 11.5151L11.3385 9.5L13.3536 7.48493L13.5 7.33849V7.13138V6V5.5H13H11.8686H11.6615L11.5151 5.64645L9.5 7.66153L7.48492 5.64645L7.33847 5.5H7.13137H6H5.5V6V7.13138V7.33849L5.64645 7.48493L7.66152 9.5L5.64645 11.5151L5.5 11.6615V11.8686V13V13.5H6H7.13138H7.33849L7.48494 13.3536L9.5 11.3385L11.5151 13.3536L11.6615 13.5H11.8686H13Z" stroke="white" stroke-opacity="0.5"/>
<defs>
<linearGradient id="paint0_linear_156_30" x1="9" y1="0" x2="9" y2="18" gradientUnits="userSpaceOnUse">
<stop stop-color="#EAF6FD"/>
<stop offset="0.473958" stop-color="#D7EFFC"/>
<stop offset="0.526042" stop-color="#BDE6FD"/>
<stop offset="1" stop-color="#A9DAF5"/>
</linearGradient>
<linearGradient id="paint1_linear_156_30" x1="9" y1="0" x2="9" y2="18" gradientUnits="userSpaceOnUse">
<stop stop-color="#F9FDFE"/>
<stop offset="1" stop-color="#E8F4FC"/>
</linearGradient>
<linearGradient id="paint2_linear_156_30" x1="9.5" y1="6" x2="9.5" y2="13" gradientUnits="userSpaceOnUse">
<stop stop-color="#64A4D0"/>
<stop offset="0.210239" stop-color="#3381B9"/>
<stop offset="0.5" stop-color="#2B689C"/>
<stop offset="0.78125" stop-color="#234C7A"/>
<stop offset="1" stop-color="#536D8F"/>
</linearGradient>
</defs>
</svg>
