<svg width="16" height="16" viewBox="0 0 16 16" fill="none" xmlns="http://www.w3.org/2000/svg">
<path fill-rule="evenodd" clip-rule="evenodd" d="M9.52501 10.5C9.52501 9.96152 9.96153 9.525 10.5 9.525H14.5C15.0385 9.525 15.475 9.96152 15.475 10.5V14.5C15.475 15.0385 15.0385 15.475 14.5 15.475H10.5C9.96153 15.475 9.52501 15.0385 9.52501 14.5V10.5Z" fill="#FF0000"/>
<path fill-rule="evenodd" clip-rule="evenodd" d="M0.525009 10.5C0.525009 9.96152 0.961532 9.525 1.50001 9.525H5.50001C6.03849 9.525 6.47501 9.96152 6.47501 10.5V14.5C6.47501 15.0385 6.03849 15.475 5.50001 15.475H1.50001C0.961532 15.475 0.525009 15.0385 0.525009 14.5V10.5Z" fill="#FF0000"/>
<path fill-rule="evenodd" clip-rule="evenodd" d="M9.52501 1.5C9.52501 0.961521 9.96153 0.524998 10.5 0.524998H14.5C15.0385 0.524998 15.475 0.961521 15.475 1.5V5.5C15.475 6.03848 15.0385 6.475 14.5 6.475H10.5C9.96153 6.475 9.52501 6.03848 9.52501 5.5V1.5Z" fill="#FF0000"/>
<path fill-rule="evenodd" clip-rule="evenodd" d="M0.525009 1.5C0.525009 0.961521 0.961532 0.524998 1.50001 0.524998H5.50001C6.03849 0.524998 6.47501 0.961521 6.47501 1.5V5.5C6.47501 6.03848 6.03849 6.475 5.50001 6.475H1.50001C0.961532 6.475 0.525009 6.03848 0.525009 5.5V1.5Z" fill="#FF0000"/>
</svg>
