<svg width="16" height="16" viewBox="0 0 16 16" fill="none" xmlns="http://www.w3.org/2000/svg">
<path d="M10.5 9.525H14.5C15.0385 9.525 15.475 9.96152 15.475 10.5V14.5C15.475 15.0385 15.0385 15.475 14.5 15.475H10.5C9.96152 15.475 9.525 15.0385 9.525 14.5V10.5C9.525 9.96152 9.96152 9.525 10.5 9.525Z" stroke="#333333" stroke-width="1.05"/>
<path d="M1.5 9.525H5.5C6.03848 9.525 6.475 9.96152 6.475 10.5V14.5C6.475 15.0385 6.03848 15.475 5.5 15.475H1.5C0.961522 15.475 0.525 15.0385 0.525 14.5V10.5C0.525 9.96152 0.961522 9.525 1.5 9.525Z" stroke="#333333" stroke-width="1.05"/>
<path d="M10.5 0.525H14.5C15.0385 0.525 15.475 0.961522 15.475 1.5V5.5C15.475 6.03848 15.0385 6.475 14.5 6.475H10.5C9.96152 6.475 9.525 6.03848 9.525 5.5V1.5C9.525 0.961522 9.96152 0.525 10.5 0.525Z" stroke="#333333" stroke-width="1.05"/>
<path d="M1.5 0.525H5.5C6.03848 0.525 6.475 0.961522 6.475 1.5V5.5C6.475 6.03848 6.03848 6.475 5.5 6.475H1.5C0.961522 6.475 0.525 6.03848 0.525 5.5V1.5C0.525 0.961522 0.961522 0.525 1.5 0.525Z" stroke="#333333" stroke-width="1.05"/>
</svg>
