<svg width="14" height="14" viewBox="0 0 14 14" fill="none" xmlns="http://www.w3.org/2000/svg">
<path d="M4 1C4 0.447716 4.44772 0 5 0C5.55228 0 6 0.447716 6 1C6 1.318 5.85269 1.60102 5.61861 1.78581C5.42346 1.93986 5.29269 2.16108 5.25183 2.40631L5.18028 2.8356C5.13196 3.12555 5.21365 3.42208 5.40366 3.64637C5.59366 3.87067 5.87271 4 6.16667 4H10V7.83334C10 8.12729 10.1293 8.40635 10.3536 8.59635C10.5779 8.78636 10.8744 8.86805 11.1644 8.81973L11.5937 8.74818C11.8389 8.70731 12.0602 8.57654 12.2142 8.38139C12.399 8.1473 12.682 8 13 8C13.5523 8 14 8.44772 14 9C14 9.55228 13.5523 10 13 10C12.682 10 12.399 9.8527 12.2142 9.61861C12.0602 9.42346 11.8389 9.29269 11.5937 9.25182L11.1644 9.18027C10.8744 9.13195 10.5779 9.21364 10.3536 9.40365C10.1293 9.59365 10 9.87271 10 10.1667V14H0V11.8291C0.312744 11.9397 0.649368 12 1 12C2.65686 12 4 10.6569 4 9C4 7.34315 2.65686 6 1 6C0.649368 6 0.312744 6.0603 0 6.17091V4H3.83333C4.12729 4 4.40634 3.87067 4.59634 3.64637C4.78635 3.42208 4.86804 3.12555 4.81972 2.8356L4.74817 2.40631C4.70731 2.16108 4.57654 1.93986 4.38139 1.78581C4.14731 1.60102 4 1.318 4 1Z" fill="#FF0000"/>
</svg>
