<svg width="16" height="16" viewBox="0 0 16 16" fill="none" xmlns="http://www.w3.org/2000/svg">
<path d="M6.92841 3.17826L6.77678 3.29796L6.74502 3.48852L6.67347 3.9178L6.57644 4.5H7.16667H11C11.2761 4.5 11.5 4.72386 11.5 5V8.83333V9.42356L12.0822 9.32653L12.5115 9.25498L12.702 9.22322L12.8217 9.07159C13.0973 8.72255 13.5225 8.5 14 8.5C14.8284 8.5 15.5 9.17157 15.5 10C15.5 10.8284 14.8284 11.5 14 11.5C13.5225 11.5 13.0973 11.2774 12.8217 10.9284L12.702 10.7768L12.5115 10.745L12.0822 10.6735L11.5 10.5764V11.1667V15C11.5 15.2761 11.2761 15.5 11 15.5H1C0.723858 15.5 0.5 15.2761 0.5 15V12.0001C0.917618 12.3137 1.43713 12.5 2 12.5C3.38071 12.5 4.5 11.3807 4.5 10C4.5 8.61929 3.38071 7.5 2 7.5C1.43713 7.5 0.917618 7.6863 0.5 7.99991V5C0.5 4.72386 0.723858 4.5 1 4.5H4.83333H5.42356L5.32653 3.9178L5.25498 3.48852L5.22322 3.29796L5.07159 3.17826C4.72255 2.90273 4.5 2.47751 4.5 2C4.5 1.17157 5.17157 0.5 6 0.5C6.82843 0.5 7.5 1.17157 7.5 2C7.5 2.47751 7.27745 2.90273 6.92841 3.17826Z" stroke="#333333" stroke-opacity="0.45" stroke-linejoin="round"/>
</svg>
