<svg width="16" height="16" viewBox="0 0 16 16" fill="none" xmlns="http://www.w3.org/2000/svg">
<path d="M4.5 2C4.5 1.17157 5.17157 0.5 6 0.5C6.82843 0.5 7.5 1.17157 7.5 2C7.5 2.47751 7.27745 2.90274 6.92842 3.17826C6.83084 3.25529 6.76546 3.3659 6.74503 3.48851L6.67348 3.9178C6.64931 4.06277 6.69016 4.21104 6.78516 4.32319C6.88016 4.43533 7.0197 4.5 7.16667 4.5H11C11.2761 4.5 11.5 4.72386 11.5 5V8.83334C11.5 8.98031 11.5647 9.11984 11.6768 9.21484C11.789 9.30984 11.9372 9.35069 12.0822 9.32653L12.5115 9.25499C12.6341 9.23455 12.7447 9.16917 12.8217 9.07159C13.0973 8.72255 13.5225 8.5 14 8.5C14.8284 8.5 15.5 9.17157 15.5 10C15.5 10.8284 14.8284 11.5 14 11.5C13.5225 11.5 13.0973 11.2774 12.8217 10.9284C12.7447 10.8308 12.6341 10.7655 12.5115 10.745L12.0822 10.6735C11.9372 10.6493 11.789 10.6902 11.6768 10.7852C11.5647 10.8802 11.5 11.0197 11.5 11.1667V15C11.5 15.2761 11.2761 15.5 11 15.5H1C0.723862 15.5 0.5 15.2761 0.5 15V12.0001C0.917618 12.3137 1.43712 12.5 2 12.5C3.38071 12.5 4.5 11.3807 4.5 10C4.5 8.61929 3.38071 7.5 2 7.5C1.43712 7.5 0.917618 7.6863 0.5 7.9999V5C0.5 4.72386 0.723862 4.5 1 4.5H4.83333C4.9803 4.5 5.11984 4.43533 5.21484 4.32319C5.30984 4.21104 5.35069 4.06277 5.32652 3.9178L5.25497 3.48851C5.23454 3.3659 5.16916 3.25529 5.07158 3.17826C4.72255 2.90274 4.5 2.47751 4.5 2Z" fill="#FF0000"/>
</svg>
