<svg width="15" height="14" viewBox="0 0 15 14" fill="none" xmlns="http://www.w3.org/2000/svg">
<path d="M10.7882 9.31487L12.5822 13.2205C12.7495 13.5848 12.4833 14 12.0824 14C11.9492 14 11.8205 13.9517 11.7202 13.8639L7.50001 10.1712L3.2798 13.8639C3.17952 13.9517 3.05086 14 2.91762 14C2.51668 14 2.2505 13.5848 2.41786 13.2205L4.21181 9.31487L0.57463 5.33493C0.536696 5.29341 0.525374 5.25905 0.52159 5.23192C0.517074 5.1998 0.521376 5.15994 0.53926 5.11934C0.557174 5.07874 0.583693 5.04868 0.610427 5.03033C0.63304 5.01483 0.66603 5 0.722274 5H4.9745L7.50001 0.16124L10.0255 5H14.2777C14.334 5 14.367 5.01483 14.3896 5.03033C14.4163 5.04868 14.4429 5.07874 14.4607 5.11934C14.4787 5.15994 14.4829 5.1998 14.4784 5.23192C14.4746 5.25905 14.4633 5.29341 14.4254 5.33493L10.7882 9.31487Z" fill="#FF0000"/>
</svg>
