<svg width="17" height="16" viewBox="0 0 17 16" fill="none" xmlns="http://www.w3.org/2000/svg">
<path d="M11.1883 5.23136L11.3285 5.50001H11.6316H15.474C16.0266 5.50001 16.3166 6.21957 15.8811 6.60836C15.0596 7.34171 14.17 8.16327 13.5172 8.83987C13.1935 9.17538 12.9126 9.49101 12.7274 9.75043C12.6378 9.8761 12.5493 10.0175 12.4976 10.1592C12.4607 10.2605 12.3596 10.5931 12.6201 10.8536C12.619 10.8524 12.6184 10.8518 12.6184 10.8519C12.6182 10.8521 12.6351 10.8719 12.6705 10.9272C12.7078 10.9854 12.7537 11.0642 12.8078 11.1636C12.9158 11.3622 13.0459 11.6235 13.1898 11.9269C13.4771 12.5326 13.8092 13.2845 14.113 13.99C14.4203 14.7034 13.896 15.5 13.1046 15.5C12.836 15.5 12.5764 15.4025 12.3742 15.2256L8.82924 12.1237L8.49999 11.8356L8.17074 12.1237L4.5946 15.2528L4.92385 15.6291L4.5946 15.2528C4.4125 15.4122 4.17875 15.5 3.93678 15.5C3.19467 15.5 2.70082 14.7127 3.02992 14.0346C3.37377 13.326 3.73809 12.5598 4.01716 11.9344C4.15638 11.6224 4.27694 11.3398 4.36356 11.1144C4.40669 11.0022 4.44393 10.8976 4.47111 10.8073C4.4931 10.7342 4.52631 10.6155 4.52631 10.5C4.52631 10.3681 4.47948 10.2618 4.45663 10.2137C4.42779 10.153 4.3921 10.095 4.35763 10.0439C4.28814 9.94091 4.19522 9.82421 4.09071 9.70182C3.87985 9.4549 3.58808 9.1458 3.25466 8.80729C2.58588 8.1283 1.72303 7.30426 0.940161 6.57041C0.530567 6.18646 0.809871 5.50001 1.35534 5.50001H5.36841H5.67145L5.81167 5.23136L8.05673 0.92989C8.24369 0.57169 8.75629 0.571688 8.94325 0.929891L11.1883 5.23136Z" stroke="#333333" stroke-opacity="0.45"/>
</svg>
