<svg width="17" height="16" viewBox="0 0 17 16" fill="none" xmlns="http://www.w3.org/2000/svg">
<path fill-rule="evenodd" clip-rule="evenodd" d="M11.2442 5.88802L8.6265 1.01609C8.62479 1.0129 8.62349 1.01102 8.62281 1.0101L8.6216 1.00864C8.62155 1.00858 8.62111 1.00808 8.61941 1.00713C8.61508 1.00469 8.60329 1 8.58546 1C8.56763 1 8.55583 1.00469 8.55151 1.00712C8.54989 1.00804 8.54941 1.00854 8.54932 1.00862L8.54811 1.0101C8.54742 1.01102 8.54613 1.0129 8.54442 1.01608L5.92667 5.88802H1.15537C1.10109 5.88802 1.07465 5.90225 1.06013 5.9125C1.04108 5.92595 1.02234 5.94815 1.01053 5.97752C0.998714 6.00693 0.998737 6.03113 1.00161 6.04529C1.00325 6.05338 1.00774 6.07299 1.04126 6.10351C1.85667 6.846 2.75973 7.68364 3.46229 8.3765C3.81158 8.72097 4.12477 9.04283 4.35564 9.30545C4.46916 9.43457 4.57993 9.56866 4.66792 9.69537C4.71129 9.75783 4.76382 9.83936 4.80923 9.93223C4.8418 9.99883 4.93305 10.1916 4.93305 10.444C4.93305 10.6458 4.87553 10.8318 4.85292 10.9048C4.81927 11.0134 4.77538 11.1323 4.72827 11.2513C4.63328 11.4914 4.50357 11.7864 4.35739 12.1046C4.06372 12.7439 3.68195 13.5237 3.32362 14.241C3.16462 14.5592 3.38536 15 3.83994 15C3.9835 15 4.11791 14.9492 4.21882 14.8634L4.86645 15.6253C4.58228 15.8669 4.21753 16 3.83994 16C2.67827 16 1.92187 14.8092 2.42905 13.794C3.14275 12.3655 3.93305 10.721 3.93305 10.444C3.93305 10.1506 1.99358 8.3231 0.367994 6.84291C-0.395824 6.14741 0.108432 4.88802 1.15537 4.88802H5.32877L7.66352 0.54277C8.05237 -0.180924 9.11854 -0.180923 9.50739 0.542771L11.8421 4.88802H15.838C16.9065 4.88802 17.4048 6.19835 16.6077 6.88954C14.9034 8.36749 12.9542 10.1684 13.2379 10.444C13.5071 10.7055 14.2667 12.3406 14.9003 13.7698C15.3706 14.8306 14.5631 16 13.374 16C12.9687 16 12.5771 15.8571 12.2721 15.5978L8.58546 12.4644L4.86645 15.6253L4.21882 14.8634L8.58546 11.152L12.9197 14.8358C13.0415 14.9394 13.2027 15 13.374 15C13.9011 15 14.1389 14.5196 13.9861 14.1751C13.671 13.4642 13.3285 12.7113 13.0338 12.1077C12.886 11.8049 12.7553 11.5504 12.6497 11.3617C12.557 11.1962 12.5138 11.1381 12.5156 11.1367C12.516 11.1364 12.5186 11.1389 12.5234 11.1437C12.0416 10.6565 12.2472 10.049 12.2951 9.92126C12.3734 9.71286 12.4979 9.52602 12.5992 9.38814C12.8141 9.09556 13.1273 8.75577 13.4678 8.41297C14.1599 7.71612 15.0963 6.87655 15.9526 6.13404C15.9884 6.10295 15.9949 6.08113 15.9976 6.06922C16.0016 6.05088 16.0017 6.02153 15.9886 5.98714C15.9754 5.95284 15.9545 5.92793 15.9345 5.91344C15.9195 5.90256 15.8931 5.88802 15.838 5.88802H11.2442Z" fill="#333333" fill-opacity="0.45"/>
</svg>
