<svg width="17" height="16" viewBox="0 0 17 16" fill="none" xmlns="http://www.w3.org/2000/svg">
<path d="M8.62647 1.01608L11.2442 5.88803H15.838C15.893 5.88803 15.9195 5.90256 15.9345 5.91344C15.9545 5.92793 15.9754 5.95284 15.9885 5.98714C16.0017 6.02153 16.0016 6.05087 15.9976 6.06921C15.9949 6.08113 15.9884 6.10295 15.9525 6.13405C15.0963 6.87656 14.1599 7.71611 13.4677 8.41296C13.1273 8.75577 12.8141 9.09557 12.5991 9.38814C12.4978 9.52602 12.3734 9.71286 12.2951 9.92126C12.2472 10.049 12.0415 10.6565 12.5233 11.1437C12.5185 11.1389 12.5159 11.1364 12.5155 11.1367C12.515 11.1371 12.5187 11.1429 12.5267 11.1554C12.5448 11.1837 12.5853 11.2469 12.6496 11.3617C12.7553 11.5504 12.8859 11.8049 13.0338 12.1077C13.3285 12.7113 13.671 13.4642 13.9861 14.1751C14.1389 14.5196 13.9011 15 13.374 15C13.2027 15 13.0414 14.9394 12.9196 14.8358L8.58542 11.152L4.21878 14.8634C4.11789 14.9492 3.98346 15 3.83991 15C3.38532 15 3.16458 14.5592 3.32358 14.241C3.68192 13.5237 4.06369 12.7439 4.35736 12.1046C4.50354 11.7864 4.63324 11.4914 4.72824 11.2513C4.77536 11.1323 4.81925 11.0134 4.85288 10.9048C4.87549 10.8318 4.93302 10.6458 4.93302 10.444C4.93302 10.1916 4.84177 9.99884 4.80921 9.93222C4.7638 9.83936 4.71128 9.75783 4.66788 9.69537C4.5799 9.56865 4.46912 9.43457 4.35562 9.30545C4.12473 9.04283 3.81156 8.72098 3.46225 8.3765C2.75971 7.68364 1.85663 6.84599 1.04123 6.10352C1.00772 6.073 1.00321 6.05338 1.00159 6.04529C0.998721 6.03113 0.99869 6.00693 1.0105 5.97752C1.02231 5.94815 1.04105 5.92595 1.06009 5.91251C1.06757 5.90723 1.07822 5.90089 1.09421 5.89598C1.10926 5.89137 1.12903 5.88803 1.15534 5.88803H5.92664L8.54441 1.01608C8.54611 1.01289 8.5474 1.01102 8.54807 1.0101L8.54929 1.00862C8.54935 1.00854 8.54972 1.00819 8.55075 1.00755C8.55509 1.00511 8.5676 1 8.58542 1C8.60324 1 8.61505 1.00468 8.61939 1.00713C8.62107 1.00809 8.62152 1.00859 8.62158 1.00864L8.62277 1.0101L8.62427 1.0123C8.62488 1.01328 8.62564 1.01453 8.62647 1.01608Z" fill="#FF0000"/>
</svg>
