<svg width="17" height="16" viewBox="0 0 17 16" fill="none" xmlns="http://www.w3.org/2000/svg">
<path d="M12.6046 10.1627L12.3809 10.4074L12.5193 10.7087L14.0365 14.0118C14.356 14.7073 13.8478 15.5 13.0824 15.5C12.828 15.5 12.5824 15.4077 12.391 15.2402L8.82924 12.1237L8.49999 11.8356L8.17074 12.1237L4.60903 15.2402L4.93828 15.6165L4.60902 15.2402C4.41762 15.4077 4.17194 15.5 3.91761 15.5C3.15218 15.5 2.64398 14.7073 2.96347 14.0118L4.48067 10.7087L4.61905 10.4074L4.3954 10.1627L1.20554 6.67223C0.794994 6.223 1.11369 5.50001 1.72226 5.50001H5.36841H5.67145L5.81167 5.23136L8.05673 0.92989C8.24369 0.57169 8.75629 0.571688 8.94325 0.929891L11.1883 5.23136L11.3285 5.50001H11.6316H15.2777C15.8863 5.50001 16.205 6.223 15.7944 6.67223L12.6046 10.1627Z" stroke="#333333" stroke-opacity="0.45"/>
</svg>
