<svg width="17" height="16" viewBox="0 0 17 16" fill="none" xmlns="http://www.w3.org/2000/svg">
<mask id="path-1-outside-1_305_91" maskUnits="userSpaceOnUse" x="0.9375" y="0" width="16" height="16" fill="black">
<rect fill="white" x="0.9375" width="16" height="16"/>
<path fill-rule="evenodd" clip-rule="evenodd" d="M10.9256 9.20002H1.9375V6.80002H10.9256L8 3.66009L9.90959 2L15.5 8L9.90959 14L8 12.3399L10.9256 9.20002Z"/>
</mask>
<path fill-rule="evenodd" clip-rule="evenodd" d="M10.9256 9.20002H1.9375V6.80002H10.9256L8 3.66009L9.90959 2L15.5 8L9.90959 14L8 12.3399L10.9256 9.20002Z" fill="white" fill-opacity="0.5"/>
<path d="M10.9256 9.20002L11.6572 9.88171L13.2241 8.20002H10.9256V9.20002ZM1.9375 9.20002H0.9375V10.2H1.9375V9.20002ZM1.9375 6.80002V5.80002H0.9375V6.80002H1.9375ZM10.9256 6.80002V7.80002H13.2241L11.6572 6.11832L10.9256 6.80002ZM8 3.66009L7.34392 2.9054L6.56277 3.58449L7.26836 4.34178L8 3.66009ZM9.90959 2L10.6412 1.31831L9.98262 0.611454L9.2535 1.24531L9.90959 2ZM15.5 8L16.2316 8.68169L16.8668 8L16.2316 7.31831L15.5 8ZM9.90959 14L9.2535 14.7547L9.98262 15.3885L10.6412 14.6817L9.90959 14ZM8 12.3399L7.26836 11.6582L6.56277 12.4155L7.34392 13.0946L8 12.3399ZM10.9256 8.20002H1.9375V10.2H10.9256V8.20002ZM2.9375 9.20002V6.80002H0.9375V9.20002H2.9375ZM1.9375 7.80002H10.9256V5.80002H1.9375V7.80002ZM11.6572 6.11832L8.73164 2.9784L7.26836 4.34178L10.1939 7.48171L11.6572 6.11832ZM8.65608 4.41478L10.5657 2.75469L9.2535 1.24531L7.34392 2.9054L8.65608 4.41478ZM9.17795 2.68169L14.7684 8.68169L16.2316 7.31831L10.6412 1.31831L9.17795 2.68169ZM14.7684 7.31831L9.17795 13.3183L10.6412 14.6817L16.2316 8.68169L14.7684 7.31831ZM10.5657 13.2453L8.65608 11.5852L7.34392 13.0946L9.2535 14.7547L10.5657 13.2453ZM8.73164 13.0216L11.6572 9.88171L10.1939 8.51833L7.26836 11.6582L8.73164 13.0216Z" fill="#3C3C3C" fill-opacity="0.4" mask="url(#path-1-outside-1_305_91)"/>
</svg>
