<svg width="16" height="16" viewBox="0 0 16 16" fill="none" xmlns="http://www.w3.org/2000/svg">
<path d="M6.39043 2.81235L8.04146 0.748566L15.5 8.20711V9C15.5 9.27614 15.2761 9.5 15 9.5H14H13.5V10V15C13.5 15.2761 13.2761 15.5 13 15.5H10C9.72386 15.5 9.5 15.2761 9.5 15V10V9.5H9H7H6.5V10V15C6.5 15.2761 6.27614 15.5 6 15.5H3C2.72386 15.5 2.5 15.2761 2.5 15V10V9.5H2H1C0.723858 9.5 0.5 9.27614 0.5 9V8.20711L3.35355 5.35355L3.5 5.20711V5V2.5H5.5V3.92539L6.39043 2.81235Z" stroke="#333333" stroke-opacity="0.45"/>
</svg>
