<svg width="24" height="24" viewBox="0 0 24 24" fill="none" xmlns="http://www.w3.org/2000/svg">
<path fill-rule="evenodd" clip-rule="evenodd" d="M7.25 10C7.25 6.27208 10.2721 3.25 14 3.25C17.7279 3.25 20.75 6.27208 20.75 10C20.75 13.7279 17.7279 16.75 14 16.75C10.2721 16.75 7.25 13.7279 7.25 10ZM14 0.75C8.89137 0.75 4.75 4.89137 4.75 10C4.75 12.0129 5.39295 13.8756 6.48467 15.394L0 21.8787V23L0.999984 24H2.12132L8.60599 17.5153C10.1244 18.6071 11.9871 19.25 14 19.25C19.1086 19.25 23.25 15.1086 23.25 10C23.25 4.89137 19.1086 0.75 14 0.75Z" fill="#FF0000"/>
</svg>
