<svg width="10" height="14" viewBox="0 0 10 14" fill="none" xmlns="http://www.w3.org/2000/svg">
<path fill-rule="evenodd" clip-rule="evenodd" d="M6 7.5V4.92071C5.68722 4.81015 5.35064 4.75 5 4.75C3.34315 4.75 2 6.09315 2 7.75C2 9.40685 3.34315 10.75 5 10.75C6.28143 10.75 7.37522 9.94657 7.8051 8.81596L9.86836 6.60532C9.95446 6.97293 10 7.35615 10 7.75C10 10.5114 7.76142 12.75 5 12.75C2.23858 12.75 0 10.5114 0 7.75C0 4.98858 2.23858 2.75 5 2.75C5.34247 2.75 5.67689 2.78443 6 2.85002V2.5V0L9.5 3.75L6 7.5Z" fill="#FF0000"/>
</svg>
