<svg width="26" height="14" viewBox="0 0 26 14" fill="none" xmlns="http://www.w3.org/2000/svg">
<path d="M22.5 9L19 5H26L22.5 9Z" fill="#FF0000"/>
<path fill-rule="evenodd" clip-rule="evenodd" d="M11.0607 5C11.0607 6.65685 9.71751 8 8.06066 8C6.40381 8 5.06066 6.65685 5.06066 5C5.06066 3.34315 6.40381 2 8.06066 2C9.71751 2 11.0607 3.34315 11.0607 5ZM13.0607 5C13.0607 7.76142 10.8221 10 8.06066 10C7.22621 10 6.4395 9.79559 5.74788 9.4341L2.12132 13.0607L0 10.9393L3.62656 7.31278C3.26507 6.62116 3.06066 5.83445 3.06066 5C3.06066 2.23858 5.29924 0 8.06066 0C10.8221 0 13.0607 2.23858 13.0607 5Z" fill="#FF0000"/>
</svg>
