<svg width="16" height="16" viewBox="0 0 16 16" fill="none" xmlns="http://www.w3.org/2000/svg">
<path fill-rule="evenodd" clip-rule="evenodd" d="M10.6076 2.7055L12.8056 0.507535C13.8825 1.19967 14.8004 2.11765 15.4926 3.19454L13.2946 5.3925L13.3251 5.45634C13.4147 5.64343 13.4946 5.83597 13.5644 6.03333L13.588 6.10001H15.9001V9.9H13.588L13.5644 9.96668C13.4946 10.164 13.4147 10.3566 13.3252 10.5437L13.2946 10.6075L15.4926 12.8055C14.8004 13.8824 13.8825 14.8003 12.8056 15.4925L10.6076 13.2945L10.5438 13.3251C10.3567 13.4146 10.1641 13.4946 9.96677 13.5643L9.9001 13.5879V15.9H6.1001V13.5879L6.03342 13.5643C5.83607 13.4946 5.64352 13.4146 5.45643 13.3251L5.39259 13.2945L3.19463 15.4925C2.11774 14.8003 1.19976 13.8824 0.507626 12.8055L2.70559 10.6075L2.67504 10.5437C2.58551 10.3566 2.50555 10.164 2.43579 9.96668L2.41223 9.90001H0.100098V6.10001H2.41223L2.43579 6.03333C2.50555 5.83598 2.58551 5.64344 2.67504 5.45634L2.70559 5.39251L0.507629 3.19454C1.19976 2.11765 2.11774 1.19967 3.19463 0.507535L5.3926 2.7055L5.45643 2.67495C5.64353 2.58542 5.83607 2.50546 6.03342 2.4357L6.1001 2.41214V0.100006H9.9001V2.41214L9.96677 2.4357C10.1641 2.50546 10.3567 2.58542 10.5438 2.67495L10.6076 2.7055ZM8.0001 10.1C9.1599 10.1 10.1001 9.1598 10.1001 8.00001C10.1001 6.84021 9.1599 5.90001 8.0001 5.90001C6.8403 5.90001 5.9001 6.84021 5.9001 8.00001C5.9001 9.1598 6.8403 10.1 8.0001 10.1Z" fill="#FF0000"/>
</svg>
