<svg width="16" height="16" viewBox="0 0 16 16" fill="none" xmlns="http://www.w3.org/2000/svg">
<path fill-rule="evenodd" clip-rule="evenodd" d="M9.70711 10.6C12.2476 10.6 14.3071 8.5405 14.3071 5.99999C14.3071 3.45948 12.2476 1.39999 9.70711 1.39999C7.1666 1.39999 5.10711 3.45948 5.10711 5.99999C5.10711 6.90826 5.37034 7.75504 5.82468 8.46821L2 12.2929L3.41421 13.7071L7.2389 9.88242C7.95207 10.3368 8.79885 10.6 9.70711 10.6ZM12.7071 5.99999C12.7071 7.65685 11.364 8.99999 9.70711 8.99999C8.05025 8.99999 6.70711 7.65685 6.70711 5.99999C6.70711 4.34314 8.05025 2.99999 9.70711 2.99999C11.364 2.99999 12.7071 4.34314 12.7071 5.99999Z" fill="black"/>
<path fill-rule="evenodd" clip-rule="evenodd" d="M9.70711 10.6C12.2476 10.6 14.3071 8.5405 14.3071 5.99999C14.3071 3.45948 12.2476 1.39999 9.70711 1.39999C7.1666 1.39999 5.10711 3.45948 5.10711 5.99999C5.10711 6.90826 5.37034 7.75504 5.82468 8.46821L2 12.2929L3.41421 13.7071L7.2389 9.88242C7.95207 10.3368 8.79885 10.6 9.70711 10.6ZM12.7071 5.99999C12.7071 7.65685 11.364 8.99999 9.70711 8.99999C8.05025 8.99999 6.70711 7.65685 6.70711 5.99999C6.70711 4.34314 8.05025 2.99999 9.70711 2.99999C11.364 2.99999 12.7071 4.34314 12.7071 5.99999Z" fill="url(#paint0_linear_154_22)"/>
<path d="M1.64645 11.9393L1.29289 12.2929L1.64645 12.6464L3.06066 14.0607L3.41421 14.4142L3.76777 14.0607L7.32036 10.5081C8.03281 10.886 8.84553 11.1 9.70711 11.1C12.5238 11.1 14.8071 8.81665 14.8071 5.99999C14.8071 3.18334 12.5238 0.899994 9.70711 0.899994C6.89046 0.899994 4.60711 3.18334 4.60711 5.99999C4.60711 6.86158 4.82113 7.6743 5.19904 8.38675L1.64645 11.9393ZM12.2071 5.99999C12.2071 7.38071 11.0878 8.49999 9.70711 8.49999C8.3264 8.49999 7.20711 7.38071 7.20711 5.99999C7.20711 4.61928 8.3264 3.49999 9.70711 3.49999C11.0878 3.49999 12.2071 4.61928 12.2071 5.99999Z" stroke="#F5F5F5" stroke-opacity="0.71"/>
<defs>
<linearGradient id="paint0_linear_154_22" x1="8.15355" y1="1.39999" x2="8.15355" y2="13.7071" gradientUnits="userSpaceOnUse">
<stop stop-color="#7FCFE6"/>
<stop offset="0.434351" stop-color="#397CC0"/>
<stop offset="1" stop-color="#223A68"/>
</linearGradient>
</defs>
</svg>
