<svg width="16" height="16" viewBox="0 0 16 16" fill="none" xmlns="http://www.w3.org/2000/svg">
<path fill-rule="evenodd" clip-rule="evenodd" d="M10.7935 3.79226L12.9057 1.68011C13.4338 2.09075 13.9092 2.56616 14.3199 3.09432L12.2077 5.20647L12.5132 5.84484C12.589 6.00326 12.6567 6.16624 12.7157 6.33325L12.9514 7H15V9H12.9514L12.7157 9.66675C12.6567 9.83376 12.589 9.99674 12.5132 10.1552L12.2077 10.7935L14.3199 12.9057C13.9093 13.4338 13.4338 13.9092 12.9057 14.3199L10.7935 12.2077L10.1552 12.5132C9.99674 12.589 9.83376 12.6567 9.66675 12.7157L9 12.9514V15H7V12.9514L6.33325 12.7157C6.16624 12.6567 6.00326 12.589 5.84484 12.5132L5.20647 12.2077L3.09432 14.3199C2.56616 13.9092 2.09075 13.4338 1.68011 12.9057L3.79226 10.7935L3.48677 10.1552C3.41096 9.99674 3.34328 9.83376 3.28425 9.66675L3.04859 9H1V7H3.04859L3.28425 6.33325C3.34328 6.16624 3.41096 6.00326 3.48677 5.84484L3.79226 5.20648L1.68011 3.09432C2.09075 2.56616 2.56616 2.09075 3.09432 1.68011L5.20647 3.79227L5.84484 3.48677C6.00326 3.41096 6.16624 3.34328 6.33325 3.28425L7 3.04859V1H9V3.04859L9.66675 3.28425C9.83376 3.34328 9.99674 3.41096 10.1552 3.48677L10.7935 3.79226ZM8 11C9.65685 11 11 9.65685 11 8C11 6.34315 9.65685 5 8 5C6.34315 5 5 6.34315 5 8C5 9.65685 6.34315 11 8 11Z" fill="#FF0000"/>
</svg>
