<svg width="16" height="16" viewBox="0 0 16 16" fill="none" xmlns="http://www.w3.org/2000/svg">
<path d="M13.6586 6.5H15.5V9.5H13.6586H13.305L13.1872 9.83337C13.1222 10.0172 13.0477 10.1966 12.9642 10.371L12.8115 10.6902L13.0617 10.9404L14.9773 12.856C14.4012 13.6821 13.6821 14.4012 12.856 14.9773L10.9404 13.0617L10.6902 12.8115L10.371 12.9642C10.1966 13.0477 10.0172 13.1222 9.83338 13.1872L9.5 13.305V13.6586V15.5H6.5V13.6586V13.305L6.16662 13.1872C5.98275 13.1222 5.80335 13.0477 5.629 12.9642L5.30982 12.8115L5.05961 13.0617L3.14401 14.9773C2.31789 14.4012 1.59878 13.6821 1.02269 12.856L2.93829 10.9404L3.1885 10.6902L3.03576 10.371C2.95232 10.1966 2.87782 10.0172 2.81283 9.83338L2.695 9.5H2.34141H0.5V6.5H2.34141H2.695L2.81283 6.16662C2.87782 5.98276 2.95232 5.80335 3.03576 5.62901L3.1885 5.30983L2.93829 5.05962L1.02269 3.14401C1.59879 2.31789 2.31789 1.59878 3.14401 1.02269L5.05961 2.9383L5.30982 3.1885L5.629 3.03576C5.80335 2.95232 5.98275 2.87782 6.16662 2.81283L6.5 2.695V2.34141V0.5H9.5V2.34141V2.695L9.83338 2.81283C10.0172 2.87782 10.1966 2.95232 10.371 3.03576L10.6902 3.1885L10.9404 2.93829L12.856 1.02269C13.6821 1.59878 14.4012 2.31789 14.9773 3.14401L13.0617 5.05961L12.8115 5.30982L12.9642 5.629C13.0477 5.80335 13.1222 5.98275 13.1872 6.16662L13.305 6.5H13.6586ZM8 10.5C9.38071 10.5 10.5 9.38071 10.5 8C10.5 6.61929 9.38071 5.5 8 5.5C6.61929 5.5 5.5 6.61929 5.5 8C5.5 9.38071 6.61929 10.5 8 10.5Z" stroke="#333333"/>
</svg>
