<svg width="16" height="15" viewBox="0 0 16 15" fill="none" xmlns="http://www.w3.org/2000/svg">
<path fill-rule="evenodd" clip-rule="evenodd" d="M3.23894 8.63635C3.43246 9.23842 3.73703 9.79071 4.12851 10.2691L2.64641 11.7512L3.35351 12.4583L4.83562 10.9762C5.314 11.3677 5.86627 11.6723 6.46832 11.8658L6.01099 14L6.98879 14.2095L7.4463 12.0745C7.62811 12.0945 7.81286 12.1048 8 12.1048C8.18707 12.1048 8.37174 12.0945 8.55348 12.0745L9.01099 14.2095L9.98879 14L9.53147 11.8659C10.1336 11.6723 10.6859 11.3677 11.1644 10.9762L12.6465 12.4583L13.3536 11.7512L11.8715 10.2691C12.263 9.79071 12.5675 9.23841 12.7611 8.63633L14.8953 9.09366L15.1048 8.11586L12.9697 7.65834C12.9897 7.47657 13 7.29187 13 7.10477C13 6.91766 12.9897 6.73295 12.9697 6.55118L15.1048 6.09366L14.8953 5.11586L12.7611 5.57319C12.5675 4.9711 12.263 4.4188 11.8715 3.94038L13.3535 2.45833L12.6464 1.75122L11.1643 3.23328C10.6859 2.84177 10.1336 2.53719 9.53147 2.34367L9.98879 0.209529L9.01099 0L8.55347 2.13505C8.37174 2.11504 8.18707 2.10477 8 2.10477C7.81286 2.10477 7.62811 2.11505 7.44631 2.13508L6.98879 0L6.01099 0.209529L6.46832 2.34374C5.86628 2.53727 5.31403 2.84182 4.83565 3.23328L3.35359 1.75122L2.64648 2.45833L4.12854 3.94038C3.73704 4.41879 3.43247 4.97109 3.23894 5.57318L1.10479 5.11586L0.895264 6.09366L3.0303 6.55117C3.01028 6.73295 3 6.91766 3 7.10477C3 7.29187 3.01028 7.47658 3.0303 7.65835L0.895264 8.11586L1.10479 9.09366L3.23894 8.63635ZM5.55461 8.84302C5.74921 9.11628 5.98846 9.35553 6.26171 9.55013C6.45563 9.68822 6.66667 9.80382 6.89103 9.89313C7.19564 10.0144 7.5248 10.0872 7.86898 10.102C7.91242 10.1038 7.9561 10.1048 8 10.1048C8.04382 10.1048 8.08743 10.1038 8.13079 10.102C8.47498 10.0872 8.80415 10.0144 9.10876 9.89322C9.3332 9.80389 9.54431 9.68826 9.73829 9.55013C10.0115 9.35553 10.2508 9.11628 10.4454 8.84302C10.5835 8.64908 10.6991 8.43801 10.7884 8.21362C10.9096 7.90901 10.9824 7.57985 10.9972 7.23566C10.9991 7.19226 11 7.14862 11 7.10477C11 7.06091 10.9991 7.01726 10.9972 6.97386C10.9824 6.62967 10.9096 6.30051 10.7884 5.9959C10.6991 5.7715 10.5835 5.56043 10.4454 5.36648C10.2508 5.09322 10.0115 4.85397 9.73825 4.65938C9.54429 4.52126 9.33319 4.40563 9.10876 4.31632C8.80415 4.19509 8.47498 4.12233 8.13079 4.10757C8.08743 4.10571 8.04382 4.10477 8 4.10477C7.9561 4.10477 7.91242 4.10571 7.86898 4.10758C7.5248 4.12237 7.19564 4.19515 6.89103 4.3164C6.66668 4.4057 6.45566 4.5213 6.26175 4.65938C5.98849 4.85397 5.74924 5.09322 5.55464 5.36648C5.41653 5.56042 5.30091 5.77149 5.2116 5.99589C5.09036 6.3005 5.01758 6.62966 5.00281 6.97385C5.00094 7.01726 5 7.0609 5 7.10477C5 7.14863 5.00094 7.19227 5.0028 7.23567C5.01758 7.57986 5.09035 7.90902 5.21159 8.21363C5.3009 8.43802 5.41651 8.64908 5.55461 8.84302Z" fill="#FF0000"/>
</svg>
