<svg width="18" height="18" viewBox="0 0 18 18" fill="none" xmlns="http://www.w3.org/2000/svg">
<path d="M11.4977 9.21421L11.9972 9.23566L11.4977 9.21421C11.4853 9.50146 11.4247 9.77542 11.3239 10.0287C11.2495 10.2154 11.1533 10.3913 11.0381 10.553C10.8758 10.7809 10.6762 10.9805 10.4482 11.1428C10.2865 11.258 10.1106 11.3543 9.92388 11.4287C9.67058 11.5295 9.39661 11.5901 9.10936 11.6024C9.07314 11.604 9.03668 11.6048 9 11.6048C8.96326 11.6048 8.92674 11.604 8.89045 11.6024C8.60321 11.5901 8.32925 11.5294 8.07595 11.4286C7.88925 11.3543 7.71345 11.258 7.55175 11.1428C7.32383 10.9805 7.12421 10.7809 6.9619 10.553C6.84674 10.3913 6.75047 10.2155 6.67615 10.0287C6.57533 9.77543 6.51468 9.50147 6.50234 9.21422C6.50079 9.17796 6.5 9.14147 6.5 9.10477C6.5 9.06806 6.50079 9.03156 6.50235 8.9953C6.51468 8.70805 6.57533 8.43409 6.67615 8.18079C6.75047 7.99407 6.84676 7.81824 6.96192 7.65652C7.12423 7.4286 7.32386 7.22897 7.55178 7.06667C7.71347 6.95153 7.88926 6.85526 8.07595 6.78095C8.32925 6.68012 8.60321 6.61946 8.89045 6.60712C8.92674 6.60556 8.96326 6.60477 9 6.60477C9.03667 6.60477 9.07313 6.60555 9.10936 6.60711C9.39661 6.61943 9.67058 6.68007 9.92388 6.78088C10.1106 6.8552 10.2865 6.95149 10.4482 7.06667C10.6761 7.22897 10.8758 7.4286 11.0381 7.65652C11.1532 7.81824 11.2495 7.99407 11.3239 8.1808C11.4247 8.4341 11.4853 8.70806 11.4977 8.99531C11.4992 9.03157 11.5 9.06806 11.5 9.10477C11.5 9.14148 11.4992 9.17796 11.4977 9.21421ZM3.29285 13.3977L2.9393 13.7512L3.29285 14.1048L3.99996 14.8119L4.35351 15.1654L4.70707 14.8119L5.88249 13.6365C6.19578 13.8524 6.53268 14.0367 6.88861 14.1848L6.52209 15.8952L6.41732 16.3841L6.90622 16.4889L7.88402 16.6984L8.37293 16.8032L8.47769 16.3143L8.84448 14.6026C8.89616 14.604 8.948 14.6048 9 14.6048C9.05193 14.6048 9.10369 14.604 9.1553 14.6026L9.52209 16.3143L9.62685 16.8032L10.1158 16.6984L11.0936 16.4889L11.5825 16.3841L11.4777 15.8952L11.1112 14.1849C11.4672 14.0368 11.8042 13.8524 12.1175 13.6365L13.2929 14.8119L13.6465 15.1654L14 14.8119L14.7071 14.1048L15.0607 13.7512L14.7071 13.3977L13.5317 12.2222C13.7476 11.9089 13.932 11.572 14.08 11.216L15.7905 11.5826L16.2794 11.6873L16.3842 11.1984L16.5937 10.2206L16.6985 9.73172L16.2096 9.62696L14.4978 9.26016C14.4993 9.20853 14.5 9.15673 14.5 9.10477C14.5 9.0528 14.4993 9.001 14.4978 8.94936L16.2096 8.58256L16.6985 8.4778L16.5937 7.9889L16.3842 7.0111L16.2794 6.52219L15.7905 6.62696L14.08 6.99348C13.9319 6.63752 13.7476 6.30057 13.5317 5.98726L14.7071 4.81188L15.0606 4.45833L14.7071 4.10477L14 3.39767L13.6464 3.04411L13.2929 3.39767L12.1175 4.57305C11.8041 4.35713 11.4672 4.17278 11.1112 4.02468L11.4777 2.31429L11.5825 1.82539L11.0936 1.72063L10.1158 1.5111L9.62685 1.40633L9.52209 1.89524L9.1553 3.60692C9.10369 3.60549 9.05193 3.60477 9 3.60477C8.948 3.60477 8.89616 3.60549 8.84448 3.60693L8.47769 1.89524L8.37293 1.40633L7.88402 1.5111L6.90622 1.72063L6.41732 1.82539L6.52209 2.31429L6.88861 4.02476C6.5327 4.17285 6.1958 4.35717 5.88253 4.57305L4.70714 3.39767L4.35359 3.04411L4.00004 3.39767L3.29293 4.10477L2.93938 4.45833L3.29293 4.81188L4.46831 5.98726C4.2524 6.30057 4.06805 6.63751 3.91996 6.99347L2.20956 6.62696L1.72066 6.52219L1.61589 7.0111L1.40636 7.9889L1.3016 8.4778L1.7905 8.58256L3.50216 8.94935C3.50072 9.00099 3.5 9.0528 3.5 9.10477C3.5 9.15673 3.50072 9.20854 3.50216 9.26017L1.7905 9.62696L1.3016 9.73172L1.40636 10.2206L1.61589 11.1984L1.72066 11.6873L2.20956 11.5826L3.91996 11.216C4.06804 11.572 4.25238 11.9089 4.46828 12.2222L3.29285 13.3977Z" stroke="#333333" stroke-opacity="0.45"/>
</svg>
