<svg width="16" height="16" viewBox="0 0 16 16" fill="none" xmlns="http://www.w3.org/2000/svg">
<path fill-rule="evenodd" clip-rule="evenodd" d="M6.525 2.34141V0.525002H9.475V2.34141V2.71268L9.82505 2.8364C10.0081 2.90109 10.1866 2.97525 10.3602 3.05831L10.6953 3.21869L10.9581 2.95597L12.8588 1.05519C13.6696 1.62357 14.3764 2.33036 14.9448 3.14116L13.044 5.04193L12.7813 5.30465L12.9417 5.63979C13.0247 5.81335 13.0989 5.99193 13.1636 6.17495L13.2873 6.525H13.6586H15.475V9.475H13.6586H13.2873L13.1636 9.82504C13.0989 10.0081 13.0247 10.1867 12.9417 10.3602L12.7813 10.6953L13.044 10.9581L14.9448 12.8588C14.3764 13.6696 13.6696 14.3764 12.8588 14.9448L10.9581 13.044L10.6953 12.7813L10.3602 12.9417C10.1866 13.0247 10.0081 13.0989 9.82505 13.1636L9.475 13.2873V13.6586V15.475H6.525V13.6586V13.2873L6.17495 13.1636C5.99193 13.0989 5.81334 13.0247 5.63979 12.9417L5.30465 12.7813L5.04193 13.044L3.14116 14.9448C2.33036 14.3764 1.62357 13.6696 1.05519 12.8588L2.95597 10.9581L3.21869 10.6953L3.05831 10.3602C2.97525 10.1866 2.90109 10.0081 2.8364 9.82505L2.71268 9.475H2.34141H0.525V6.525H2.34141H2.71268L2.8364 6.17495C2.90109 5.99193 2.97525 5.81335 3.05831 5.6398L3.21869 5.30466L2.95597 5.04194L1.05519 3.14116C1.62357 2.33037 2.33037 1.62357 3.14116 1.05519L5.04194 2.95597L5.30465 3.21869L5.63979 3.05831C5.81335 2.97525 5.99193 2.90109 6.17495 2.8364L6.525 2.71268V2.34141ZM8 5.475C6.60548 5.475 5.475 6.60548 5.475 8C5.475 9.39452 6.60548 10.525 8 10.525C9.39452 10.525 10.525 9.39452 10.525 8C10.525 6.60548 9.39452 5.475 8 5.475Z" fill="#FF0000"/>
</svg>
