<svg width="14" height="14" viewBox="0 0 14 14" fill="none" xmlns="http://www.w3.org/2000/svg">
<path fill-rule="evenodd" clip-rule="evenodd" d="M6 2.04859V0H8V2.04859L8.66675 2.28425C8.83376 2.34328 8.99673 2.41096 9.15515 2.48677L9.79352 2.79226L11.9057 0.680107C12.4338 1.09075 12.9092 1.56616 13.3199 2.09432L11.2077 4.20647L11.5132 4.84484C11.589 5.00326 11.6567 5.16624 11.7157 5.33324L11.9514 6H14V8H11.9514L11.7157 8.66675C11.6567 8.83376 11.589 8.99674 11.5132 9.15516L11.2077 9.79353L13.3199 11.9057C12.9093 12.4338 12.4338 12.9092 11.9057 13.3199L9.79352 11.2077L9.15515 11.5132C8.99673 11.589 8.83376 11.6567 8.66675 11.7157L8 11.9514V14H6V11.9514L5.33325 11.7157C5.16623 11.6567 5.00325 11.589 4.84483 11.5132L4.20647 11.2077L2.09431 13.3199C1.56616 12.9092 1.09074 12.4338 0.680115 11.9057L2.79227 9.79352L2.48677 9.15516C2.41096 8.99674 2.34328 8.83376 2.28426 8.66675L2.04858 8H0V6H2.04858L2.28426 5.33324C2.34328 5.16624 2.41096 5.00326 2.48677 4.84484L2.79227 4.20648L0.680115 2.09432C1.09076 1.56616 1.56616 1.09075 2.09433 0.680111L4.20648 2.79227L4.84483 2.48677C5.00327 2.41096 5.16623 2.34328 5.33325 2.28425L6 2.04859ZM7 4C5.34314 4 4 5.34315 4 7C4 8.65685 5.34314 10 7 10C8.65686 10 10 8.65685 10 7C10 5.34315 8.65686 4 7 4Z" fill="#FF0000"/>
</svg>
