<svg width="16" height="16" viewBox="0 0 16 16" fill="none" xmlns="http://www.w3.org/2000/svg">
<path d="M2.5 0.5H13.5C14.0523 0.5 14.5 0.947715 14.5 1.5V6.5C14.5 7.05228 14.9477 7.5 15.5 7.5V8.5C14.9477 8.5 14.5 8.94772 14.5 9.5V14.5C14.5 15.0523 14.0523 15.5 13.5 15.5H2.5C1.94772 15.5 1.5 15.0523 1.5 14.5V9.5C1.5 8.94772 1.05228 8.5 0.5 8.5V7.5C1.05228 7.5 1.5 7.05228 1.5 6.5V1.5C1.5 0.947715 1.94772 0.5 2.5 0.5Z" stroke="#333333"/>
<path d="M4.04878 13.3527V10.7633C4.52033 11.1571 5.03252 11.4538 5.58537 11.6534C6.13821 11.8476 6.69648 11.9447 7.26016 11.9447C7.59079 11.9447 7.87805 11.915 8.12195 11.8557C8.37127 11.7964 8.57724 11.7154 8.73984 11.6129C8.90786 11.5051 9.03252 11.381 9.11382 11.2407C9.19512 11.0951 9.23577 10.9386 9.23577 10.7714C9.23577 10.5448 9.17073 10.3425 9.04065 10.1645C8.91057 9.98651 8.73171 9.82198 8.50407 9.67094C8.28184 9.51989 8.01626 9.37424 7.70732 9.23399C7.39837 9.09373 7.06504 8.95078 6.70732 8.80512C5.79675 8.42751 5.11653 7.96628 4.66667 7.42144C4.22222 6.8766 4 6.21848 4 5.44707C4 4.84289 4.12195 4.32502 4.36585 3.89346C4.60976 3.45651 4.94038 3.09777 5.35772 2.81726C5.78049 2.53675 6.26829 2.33176 6.82114 2.20229C7.37398 2.06743 7.95935 2 8.57724 2C9.18428 2 9.72087 2.03776 10.187 2.11328C10.6585 2.18341 11.0921 2.294 11.4878 2.44504V4.86446C11.2927 4.7296 11.0786 4.61092 10.8455 4.50843C10.6179 4.40593 10.3821 4.32232 10.1382 4.25759C9.89431 4.18746 9.65041 4.13621 9.4065 4.10384C9.16802 4.07148 8.94038 4.05529 8.72358 4.05529C8.42547 4.05529 8.15447 4.08496 7.91057 4.1443C7.66667 4.19825 7.4607 4.27647 7.29268 4.37896C7.12466 4.48146 6.99458 4.60553 6.90244 4.75118C6.8103 4.89144 6.76423 5.05057 6.76423 5.22859C6.76423 5.42279 6.81572 5.59811 6.9187 5.75455C7.02168 5.9056 7.16802 6.05125 7.35772 6.1915C7.54743 6.32637 7.77778 6.46123 8.04878 6.59609C8.31978 6.72556 8.62602 6.86042 8.96748 7.00067C9.4336 7.19488 9.85095 7.40256 10.2195 7.62374C10.5935 7.83951 10.9133 8.08496 11.1789 8.36008C11.4444 8.6352 11.6477 8.95078 11.7886 9.30681C11.9295 9.65745 12 10.0674 12 10.5367C12 11.1841 11.8753 11.7289 11.626 12.1713C11.3821 12.6082 11.0488 12.9643 10.626 13.2394C10.2033 13.5091 9.71003 13.7033 9.14634 13.822C8.58808 13.9407 7.99729 14 7.37398 14C6.73442 14 6.12466 13.9461 5.54472 13.8382C4.97019 13.7303 4.47154 13.5684 4.04878 13.3527Z" fill="#333333"/>
</svg>
