<svg width="16" height="16" viewBox="0 0 16 16" fill="none" xmlns="http://www.w3.org/2000/svg">
<path fill-rule="evenodd" clip-rule="evenodd" d="M10.882 3L10.6056 2.44721C10.5501 2.33633 10.2373 1.95508 9.67538 1.58542C9.13708 1.23127 8.53651 1 8 1C7.46349 1 6.86292 1.23127 6.32462 1.58542C5.76274 1.95508 5.44987 2.33633 5.39443 2.44721L5.11803 3H1.02137C1.28574 9.12324 3.98333 13.5797 8 14.9501C12.0167 13.5797 14.7143 9.12324 14.9786 3H10.882ZM16 2C16 2.3369 15.9931 2.67033 15.9793 3C15.7066 9.52015 12.7594 14.5722 8 16C3.24064 14.5722 0.293405 9.52015 0.0207358 3C0.00694911 2.67033 0 2.3369 0 2H4.5C4.83333 1.33333 6.4 0 8 0C9.6 0 11.1667 1.33333 11.5 2H16Z" fill="#333333"/>
<path fill-rule="evenodd" clip-rule="evenodd" d="M6 9C5.63146 9 5.45792 8.96473 5.36297 8.9155C5.30682 8.88638 5.23415 8.83211 5.16641 8.60633C5.09232 8.35936 5.04636 7.97698 5.02307 7.37141C5.00009 6.77389 5 6.00391 5 5H4V5.01077C4 6.0018 4 6.79085 4.02381 7.40984C4.04739 8.02302 4.09518 8.51564 4.20859 8.89367C4.32835 9.29289 4.53693 9.61362 4.90265 9.80325C5.22958 9.97277 5.61854 10 6 10C6.38146 10 6.77042 9.97277 7.09735 9.80325C7.36244 9.6658 7.54496 9.45947 7.67095 9.2043C8.12733 9.69386 8.77791 10 9.5 10C10.8807 10 12 8.88071 12 7.5C12 6.11929 10.8807 5 9.5 5C8.93714 5 8.41773 5.18601 7.99988 5.49991C8 5.34264 8 5.17967 8 5.01084V5H7C7 6.00391 6.99991 6.77389 6.97693 7.37141C6.95364 7.97698 6.90768 8.35936 6.83359 8.60633C6.76585 8.83211 6.69318 8.88638 6.63703 8.9155C6.54208 8.96473 6.36854 9 6 9Z" fill="#333333"/>
</svg>
