<svg width="16" height="16" viewBox="0 0 16 16" fill="none" xmlns="http://www.w3.org/2000/svg">
<mask id="path-1-inside-1_28_7" fill="white">
<path fill-rule="evenodd" clip-rule="evenodd" d="M3 2V5L0 8V9C0 9.55228 0.447715 10 1 10H2V15C2 15.5523 2.44772 16 3 16H6C6.55228 16 7 15.5523 7 15V10H9V15C9 15.5523 9.44771 16 10 16H13C13.5523 16 14 15.5523 14 15V10H15C15.5523 10 16 9.55228 16 9V8L8 0L6 2.5V2H3Z"/>
</mask>
<path d="M3 5L3.70711 5.70711L4 5.41421V5H3ZM3 2V1H2V2H3ZM0 8L-0.707107 7.29289L-1 7.58579V8H0ZM2 10H3V9H2V10ZM7 10V9H6V10H7ZM9 10H10V9H9V10ZM14 10V9H13V10H14ZM16 8H17V7.58579L16.7071 7.29289L16 8ZM8 0L8.70711 -0.707107L7.91708 -1.49713L7.21913 -0.624695L8 0ZM6 2.5H5V5.35078L6.78087 3.1247L6 2.5ZM6 2H7V1H6V2ZM4 5V2H2V5H4ZM0.707107 8.70711L3.70711 5.70711L2.29289 4.29289L-0.707107 7.29289L0.707107 8.70711ZM1 9V8H-1V9H1ZM1 9H-1C-1 10.1046 -0.10457 11 1 11V9ZM2 9H1V11H2V9ZM3 15V10H1V15H3ZM3 15H1C1 16.1046 1.89543 17 3 17V15ZM6 15H3V17H6V15ZM6 15V17C7.10457 17 8 16.1046 8 15H6ZM6 10V15H8V10H6ZM9 9H7V11H9V9ZM10 15V10H8V15H10ZM10 15H8C8 16.1046 8.89543 17 10 17V15ZM13 15H10V17H13V15ZM13 15V17C14.1046 17 15 16.1046 15 15H13ZM13 10V15H15V10H13ZM15 9H14V11H15V9ZM15 9V11C16.1046 11 17 10.1046 17 9H15ZM15 8V9H17V8H15ZM7.29289 0.707107L15.2929 8.70711L16.7071 7.29289L8.70711 -0.707107L7.29289 0.707107ZM6.78087 3.1247L8.78087 0.624695L7.21913 -0.624695L5.21913 1.8753L6.78087 3.1247ZM5 2V2.5H7V2H5ZM3 3H6V1H3V3Z" fill="#333333" mask="url(#path-1-inside-1_28_7)"/>
</svg>
