<svg width="16" height="16" viewBox="0 0 16 16" fill="none" xmlns="http://www.w3.org/2000/svg">
<path fill-rule="evenodd" clip-rule="evenodd" d="M15 9L11.5 5L8 9H10.5C10.5 9 11 10.5 10.5 11.5C10 12.5 8 14 8 14C10.3498 14 10.9327 13.1166 11.8246 11.7649C11.8816 11.6785 11.9399 11.5901 12 11.5C12.5467 10.6799 12.7945 9.71044 12.9069 9H15Z" fill="url(#paint0_linear_384_84)"/>
<path fill-rule="evenodd" clip-rule="evenodd" d="M11.5001 4C11.7884 4 12.0628 4.12448 12.2526 4.3415L15.7526 8.3415C16.011 8.63679 16.0728 9.0559 15.9107 9.41322C15.7486 9.77053 15.3924 10 15.0001 10H13.7199C13.5526 10.6463 13.2802 11.3826 12.8321 12.0547C12.7735 12.1426 12.7165 12.229 12.6593 12.3157C12.6444 12.3383 12.6294 12.361 12.6144 12.3838C12.2035 13.0072 11.7432 13.7058 11.0366 14.2057C10.2613 14.7543 9.30144 15 8.00006 15C7.56963 15 7.1875 14.7246 7.05138 14.3162C6.91529 13.9079 7.05568 13.4584 7.39992 13.2001C7.39992 13.2001 7.39991 13.2001 7.39992 13.2001L7.40326 13.1976L7.4174 13.1869C7.43033 13.177 7.45013 13.1619 7.47593 13.142C7.52756 13.1021 7.60306 13.0432 7.69568 12.9691C7.88158 12.8204 8.13328 12.6131 8.3982 12.3776C8.6648 12.1406 8.93462 11.8841 9.16135 11.6368C9.39877 11.3778 9.54313 11.1778 9.60564 11.0528C9.72113 10.8218 9.75032 10.4402 9.69541 10H8.00006C7.60769 10 7.25157 9.77053 7.08943 9.41322C6.9273 9.0559 6.98911 8.63679 7.24749 8.3415L10.7475 4.3415C10.9374 4.12448 11.2117 4 11.5001 4ZM10.5001 9C10.5001 9 11.0001 10.5 10.5001 11.5C10.2994 11.9014 9.85693 12.3834 9.39919 12.8166C8.71665 13.4626 8.00006 14 8.00006 14C8.84208 14 9.45723 13.8866 9.94101 13.6788C10.8073 13.3067 11.2524 12.6322 11.8246 11.7649C11.8817 11.6785 11.94 11.5901 12.0001 11.5C12.5468 10.6799 12.7946 9.71044 12.9069 9H15.0001L11.5001 5L8.00006 9H10.5001Z" fill="white" fill-opacity="0.5"/>
<path fill-rule="evenodd" clip-rule="evenodd" d="M1 6L4.5 10L8 6H5.5C5.5 6 5 4.5 5.5 3.5C6 2.5 8 1 8 1C5.65025 1 5.06732 1.88342 4.17542 3.23508C4.11839 3.32151 4.0601 3.40985 4 3.5C3.45329 4.32006 3.20548 5.28956 3.09314 6H1Z" fill="url(#paint1_linear_384_84)"/>
<path fill-rule="evenodd" clip-rule="evenodd" d="M4.49994 11C4.21157 11 3.93725 10.8755 3.74736 10.6585L0.247358 6.6585C-0.0110235 6.36321 -0.072834 5.9441 0.0893021 5.58678C0.251439 5.22947 0.607558 5 0.999935 5H2.28007C2.44735 4.35366 2.71984 3.61737 3.16788 2.9453C3.22646 2.85743 3.28347 2.77104 3.34069 2.68433C3.35561 2.66172 3.37058 2.639 3.38562 2.61619C3.79647 1.99277 4.25682 1.29425 4.96336 0.794337C5.73871 0.245744 6.69856 0 7.99994 0C8.43037 0 8.8125 0.27543 8.94862 0.683772C9.08471 1.09206 8.94432 1.54161 8.60008 1.79989C8.60008 1.79989 8.60009 1.79988 8.60008 1.79989L8.59674 1.80241L8.5826 1.81313C8.56967 1.82296 8.54987 1.83808 8.52407 1.858C8.47244 1.89786 8.39694 1.95677 8.30432 2.03087C8.11842 2.17958 7.86672 2.38693 7.6018 2.62241C7.3352 2.85939 7.06538 3.11589 6.83865 3.36322C6.60123 3.62224 6.45687 3.8222 6.39436 3.94721C6.27887 4.1782 6.24968 4.5598 6.30459 5H7.99994C8.39231 5 8.74843 5.22947 8.91057 5.58678C9.0727 5.9441 9.01089 6.36321 8.75251 6.6585L5.25251 10.6585C5.06262 10.8755 4.7883 11 4.49994 11ZM5.49994 6C5.49994 6 4.99994 4.5 5.49994 3.5C5.70065 3.09858 6.14307 2.61658 6.60081 2.18339C7.28335 1.53744 7.99994 1 7.99994 1C7.15792 1 6.54277 1.11344 6.05899 1.32122C5.19273 1.69326 4.74765 2.36778 4.17536 3.23508C4.11834 3.32149 4.06002 3.40987 3.99994 3.5C3.45323 4.32006 3.20541 5.28956 3.09308 6H0.999935L4.49994 10L7.99994 6H5.49994Z" fill="white" fill-opacity="0.5"/>
<defs>
<linearGradient id="paint0_linear_384_84" x1="8" y1="14" x2="8" y2="0.999999" gradientUnits="userSpaceOnUse">
<stop stop-color="#14771A"/>
<stop offset="0.5" stop-color="#368F23"/>
<stop offset="1" stop-color="#6AB95B"/>
</linearGradient>
<linearGradient id="paint1_linear_384_84" x1="8" y1="14" x2="8" y2="1" gradientUnits="userSpaceOnUse">
<stop stop-color="#14771A"/>
<stop offset="0.5" stop-color="#368F23"/>
<stop offset="1" stop-color="#6AB95B"/>
</linearGradient>
</defs>
</svg>
