<svg width="16" height="16" viewBox="0 0 16 16" fill="none" xmlns="http://www.w3.org/2000/svg">
<path fill-rule="evenodd" clip-rule="evenodd" d="M6.96473 2.43934C7.55052 1.85355 8.50026 1.85355 9.08605 2.43934L13.546 6.89925L13.5539 6.90726C13.8293 7.17922 14 7.55699 14 7.97463C14 8.18277 13.9576 8.38101 13.881 8.56118C13.8078 8.74698 13.6961 8.92111 13.5459 9.07132L9.08652 13.5307C8.50074 14.1165 7.55099 14.1165 6.9652 13.5307C6.37942 12.9449 6.37941 11.9952 6.9652 11.4094L8.89996 9.47463H3.5C2.67157 9.47463 2 8.80305 2 7.97463C2 7.1462 2.67157 6.47463 3.5 6.47463H8.8787L6.96473 4.56066C6.37894 3.97487 6.37894 3.02513 6.96473 2.43934Z" fill="url(#paint0_linear_384_82)"/>
<path fill-rule="evenodd" clip-rule="evenodd" d="M14.2557 6.19476L14.2606 6.19969C14.7161 6.65154 15 7.28084 15 7.97463C15 8.31497 14.9314 8.6418 14.8064 8.94015C14.6839 9.2465 14.4987 9.53273 14.253 9.77843L9.79363 14.2378C8.81732 15.2141 7.23441 15.2141 6.25809 14.2378C5.28178 13.2615 5.28178 11.6786 6.25809 10.7023L6.48575 10.4746H3.5C2.11929 10.4746 1 9.35534 1 7.97463C1 6.59391 2.11929 5.47463 3.5 5.47463H6.46448L6.25762 5.26777C5.28131 4.29146 5.28131 2.70854 6.25762 1.73223C7.23393 0.755922 8.81685 0.755922 9.79316 1.73223L14.2557 6.19476ZM8.8787 6.47463H3.5C2.67157 6.47463 2 7.1462 2 7.97463C2 8.80305 2.67157 9.47463 3.5 9.47463H8.89996L6.9652 11.4094C6.37941 11.9952 6.37942 12.9449 6.9652 13.5307C7.55099 14.1165 8.50074 14.1165 9.08652 13.5307L13.5459 9.07132C13.6961 8.92111 13.8078 8.74698 13.881 8.56118C13.9576 8.38101 14 8.18277 14 7.97463C14 7.55699 13.8293 7.17922 13.5539 6.90726L13.546 6.89925L9.08605 2.43934C8.50026 1.85355 7.55052 1.85355 6.96473 2.43934C6.37894 3.02513 6.37894 3.97487 6.96473 4.56066L8.8787 6.47463Z" fill="white" fill-opacity="0.5"/>
<defs>
<linearGradient id="paint0_linear_384_82" x1="8" y1="2" x2="8" y2="13.97" gradientUnits="userSpaceOnUse">
<stop stop-color="#65B555"/>
<stop offset="1" stop-color="#15771A"/>
</linearGradient>
</defs>
</svg>
