<?xml version="1.0" encoding="utf-8"?>
<!-- Generator: Adobe Illustrator 28.1.0, SVG Export Plug-In . SVG Version: 6.00 Build 0)  -->
<svg version="1.1" id="Layer_1" xmlns="http://www.w3.org/2000/svg" xmlns:xlink="http://www.w3.org/1999/xlink" x="0px" y="0px"
	 viewBox="0 0 100 41" style="enable-background:new 0 0 100 41;" xml:space="preserve">
<g>
	<path d="M0,0l8.1,2.9v28.8l11.4-6.7l-5.6-2.7l-3.5-8.9l17.9,6.4v9.3L8.1,41L0,36.4L0,0z"/>
	<path d="M40.4,32.8V8.2h6.9c2.1,0,3.8,0.5,5,1.6c1.2,1,1.8,2.4,1.8,4.1c0,1.4-0.4,2.6-1.1,3.6c-0.7,1-1.8,1.8-3.1,2.2v0.1
		c1.6,0.2,2.9,0.8,3.9,1.9c1,1.1,1.5,2.4,1.5,4.1c0,2.1-0.7,3.8-2.2,5.1c-1.5,1.3-3.4,2-5.6,2L40.4,32.8z M43.2,10.8v7.9h2.9
		c1.6,0,2.8-0.4,3.7-1.1c0.9-0.8,1.3-1.8,1.3-3.2c0-2.4-1.6-3.6-4.7-3.6H43.2z M43.2,21.3v8.9h3.9c1.7,0,3-0.4,3.9-1.2
		c0.9-0.8,1.4-1.9,1.4-3.3c0-2.9-2-4.4-5.9-4.4H43.2z"/>
	<path d="M60.4,11.3c-0.5,0-0.9-0.2-1.3-0.5c-0.3-0.3-0.5-0.8-0.5-1.3c0-0.5,0.2-1,0.5-1.3c0.3-0.3,0.8-0.5,1.3-0.5
		c0.5,0,0.9,0.2,1.3,0.5C62,8.5,62.2,9,62.2,9.5c0,0.5-0.2,0.9-0.5,1.3C61.3,11.1,60.9,11.3,60.4,11.3z M61.7,32.8h-2.8V15.4h2.8
		V32.8z"/>
	<path d="M80.6,32.8h-2.8v-9.9c0-3.7-1.2-5.6-3.9-5.6c-1.4,0-2.5,0.5-3.4,1.6c-0.9,1.1-1.4,2.4-1.4,4v9.9h-2.8V15.4h2.8v2.9h0.1
		c1.3-2.2,3.2-3.3,5.6-3.3c1.9,0,3.3,0.6,4.3,1.9c1,1.2,1.5,3,1.5,5.4V32.8z"/>
	<path d="M100,31.3c0,6.5-3,9.7-9.1,9.7c-2.1,0-3.9-0.4-5.5-1.2l0.7-2.4c0,0,1.9,1.3,4.7,1.3c4.3,0,6.4-2.3,6.4-6.9v-1.9h-0.1
		c-1.3,2.2-3.2,3.3-5.8,3.3c-2.2,0-3.9-0.7-5.2-2.2c-1.3-1.6-2-3.7-2-6.3c0-3,0.7-5.4,2.1-7.1s3.4-2.6,5.8-2.6
		c2.3,0,3.9,0.9,5.1,2.8h0.1v-2.4h2.8V31.3z M97.2,24.8v-2.5c0-1.4-0.5-2.6-1.4-3.6c-0.9-1-2-1.5-3.4-1.5c-1.7,0-3.1,0.6-4,1.9
		c-1,1.3-1.5,3-1.5,5.3c0,2,0.5,3.4,1.4,4.6c0.9,1.2,2.2,1.8,3.7,1.8c1.6,0,2.7-0.6,3.7-1.7C96.7,28,97.2,26.6,97.2,24.8z"/>
</g>
</svg>
