<?xml version="1.0" encoding="utf-8"?>
<!-- Generator: Adobe Illustrator 28.1.0, SVG Export Plug-In . SVG Version: 6.00 Build 0)  -->
<svg version="1.1"
	 id="svg2" xmlns:sodipodi="http://sodipodi.sourceforge.net/DTD/sodipodi-0.dtd" xmlns:inkscape="http://www.inkscape.org/namespaces/inkscape" xmlns:svg="http://www.w3.org/2000/svg" xmlns:rdf="http://www.w3.org/1999/02/22-rdf-syntax-ns#" xmlns:cc="http://creativecommons.org/ns#" xmlns:dc="http://purl.org/dc/elements/1.1/"
	 xmlns="http://www.w3.org/2000/svg" xmlns:xlink="http://www.w3.org/1999/xlink" x="0px" y="0px" viewBox="0 0 100 41"
	 style="enable-background:new 0 0 100 41;" xml:space="preserve">
<style type="text/css">
	.st0{fill:#999999;}
	.st1{fill:#1B4EED;}
	.st2{fill:#EE2B35;}
	.st3{fill:#1643EC;}
	.st4{fill:#00B817;}
	.st5{fill:#EE2B34;}
	.st6{opacity:0.399;enable-background:new    ;}
	.st7{fill:#FCB110;}
	.st8{opacity:0.6053;fill:url(#path3643_00000164491888342594447510000008207377651731611018_);enable-background:new    ;}
	.st9{opacity:0.289;fill:#FFFFFF;enable-background:new    ;}
	.st10{opacity:0.115;fill:url(#path7627_00000087411790712498818200000006101949368450623669_);enable-background:new    ;}
	.st11{opacity:0.1683;fill:url(#path7683_00000173861175171456804920000001664401926199396252_);enable-background:new    ;}
	.st12{opacity:0.3029;fill:#FFFFFF;enable-background:new    ;}
	.st13{opacity:0.5962;enable-background:new    ;}
	.st14{opacity:0.7837;fill:#745500;enable-background:new    ;}
	.st15{opacity:0.1916;stroke:#000000;enable-background:new    ;}
	.st16{opacity:0.2796;stroke:#000000;enable-background:new    ;}
	.st17{opacity:0.3654;fill:#FFFFFF;enable-background:new    ;}
	.st18{opacity:0.2644;fill:#FFFFFF;enable-background:new    ;}
	.st19{opacity:0.226;enable-background:new    ;}
	.st20{opacity:0.1538;fill:#FFFFFF;enable-background:new    ;}
	.st21{opacity:0.4567;fill:#FFFFFF;enable-background:new    ;}
	.st22{opacity:0.4375;fill:#FFFFFF;enable-background:new    ;}
	.st23{opacity:0.7596;enable-background:new    ;}
	.st24{opacity:0.5721;enable-background:new    ;}
	.st25{opacity:0.6442;enable-background:new    ;}
	.st26{opacity:0.4952;enable-background:new    ;}
	.st27{opacity:0.5385;enable-background:new    ;}
	.st28{opacity:0.4135;enable-background:new    ;}
	.st29{opacity:0.4087;fill:#FFFFFF;enable-background:new    ;}
	.st30{opacity:0.375;enable-background:new    ;}
	.st31{opacity:0.2308;stroke:#000000;enable-background:new    ;}
	.st32{opacity:0.5794;fill:none;stroke:#FFFFFF;stroke-width:3;enable-background:new    ;}
	.st33{opacity:0.4393;fill:none;stroke:#FFFFFF;stroke-width:3;enable-background:new    ;}
</style>
<defs>
	
		<inkscape:perspective  id="perspective10" inkscape:persp3d-origin="372.04724 : 350.78739 : 1" inkscape:vp_x="0 : 526.18109 : 1" inkscape:vp_y="0 : 1000 : 0" inkscape:vp_z="744.09448 : 526.18109 : 1" sodipodi:type="inkscape:persp3d">
		</inkscape:perspective>
	
		<inkscape:perspective  id="perspective2838" inkscape:persp3d-origin="0.5 : 0.33333333 : 1" inkscape:vp_x="0 : 0.5 : 1" inkscape:vp_y="0 : 1000 : 0" inkscape:vp_z="1 : 0.5 : 1" sodipodi:type="inkscape:persp3d">
		</inkscape:perspective>
	
		<inkscape:perspective  id="perspective2852" inkscape:persp3d-origin="0.5 : 0.33333333 : 1" inkscape:vp_x="0 : 0.5 : 1" inkscape:vp_y="0 : 1000 : 0" inkscape:vp_z="1 : 0.5 : 1" sodipodi:type="inkscape:persp3d">
		</inkscape:perspective>
	
		<inkscape:perspective  id="perspective7795" inkscape:persp3d-origin="0.5 : 0.33333333 : 1" inkscape:vp_x="0 : 0.5 : 1" inkscape:vp_y="0 : 1000 : 0" inkscape:vp_z="1 : 0.5 : 1" sodipodi:type="inkscape:persp3d">
		</inkscape:perspective>
	
		<inkscape:perspective  id="perspective7817" inkscape:persp3d-origin="0.5 : 0.33333333 : 1" inkscape:vp_x="0 : 0.5 : 1" inkscape:vp_y="0 : 1000 : 0" inkscape:vp_z="1 : 0.5 : 1" sodipodi:type="inkscape:persp3d">
		</inkscape:perspective>
	
		<inkscape:perspective  id="perspective8022" inkscape:persp3d-origin="0.5 : 0.33333333 : 1" inkscape:vp_x="0 : 0.5 : 1" inkscape:vp_y="0 : 1000 : 0" inkscape:vp_z="1 : 0.5 : 1" sodipodi:type="inkscape:persp3d">
		</inkscape:perspective>
	
		<inkscape:perspective  id="perspective8467" inkscape:persp3d-origin="0.5 : 0.33333333 : 1" inkscape:vp_x="0 : 0.5 : 1" inkscape:vp_y="0 : 1000 : 0" inkscape:vp_z="1 : 0.5 : 1" sodipodi:type="inkscape:persp3d">
		</inkscape:perspective>
	
		<inkscape:perspective  id="perspective8736" inkscape:persp3d-origin="0.5 : 0.33333333 : 1" inkscape:vp_x="0 : 0.5 : 1" inkscape:vp_y="0 : 1000 : 0" inkscape:vp_z="1 : 0.5 : 1" sodipodi:type="inkscape:persp3d">
		</inkscape:perspective>
</defs>
<g>
	<g id="layer11" inkscape:groupmode="layer" inkscape:label="Shadow">
		<path id="path3640-5" sodipodi:nodetypes="csssssssssssssssssccccccsssssssssssccc" class="st0" d="M23.2,7.1
			c0.1-0.2-2.5-1.8-6-2.4C14.1,4.2,10.3,4.1,7,5.8C6.2,6.2,5.6,6.7,5,7.1c-1.6,1.2-2.4,2.3-3,3.2c-0.7,1-1.2,2.4-1.4,3.1
			c-0.3,0.8-0.3,1.6-0.4,2.4c-0.1,0.5-0.1,1.1,0,1.7c0.1,1.4,0.4,2.9,1,4.3c0.5,1,1.1,2,1.8,2.9c1,1.4,2.7,2.4,3.7,2.9
			c0.8,0.4,1.7,0.8,3.3,1.1c1.8,0.3,4.5,0.3,8.9-0.4c1.2-0.2,2.5-0.6,4-0.9c0.1,0,0.2-0.1,0.3-0.1c0.1,0,0.2,0,0.2-0.1
			c-0.1-1.9-0.1-4.1,0-5c0-0.1,0-0.6,0-0.8c0-0.2,0.1-0.2,0.2-0.2l0.9-0.9l-7-0.1l-2.5,1.4l4.9-0.2v5.4c0,0-2,0.8-4.6,0.8
			c-1.9,0-4.3-0.5-6.6-2.2c-3.6-2.7-4.8-6.4-4.8-9c0-1.3,0-2.4,0.1-2.8c0.1-0.4,0.2-1.3,0.7-2.3c0.6-1.4,1.5-2.8,3.2-4
			c1.1-0.7,2.5-1.4,4.1-1.5c1.9-0.2,3.3,0.1,4.4,0.5c2.8,1.1,3.4,2,3.8,2.3c0,0,0.1,0.1,0.1,0.1c0,0.1,0,0.1-0.1,0.2
			c-0.2,0.3-0.7,1.2-0.7,1.2l1.1-0.1L23.2,7.1z"/>
		<path id="path7733-2" sodipodi:nodetypes="ccscssccssscc" class="st0" d="M33.8,11.9c-0.4,0-0.6,0-0.6,0c0.3-0.1-8.1,0.9-7.2,9.2
			c0.7,7.1,8.6,6.8,8.6,6.8c1.9,0.1,8.9-1.8,7.7-9.2c-0.4-2.4-1.4-3.9-2.6-5C37.6,12,35,11.9,33.8,11.9L33.8,11.9z M33.4,13
			c1.6,0,4.4,0.8,5.2,5.6c1.2,6.9-1.9,7.5-2.6,7.9c-1,0.5-5.2,0.9-6.8-6.1c-1.5-6.9,3.2-7.3,2.9-7.2C32.2,13.2,32.7,13,33.4,13z"/>
		<path id="path7733-8-1" sodipodi:nodetypes="ccscssccssscc" class="st0" d="M52.4,11.7c-0.4,0-0.6,0-0.6,0
			c0.3-0.1-8.1,0.9-7.2,9.2c0.7,7.1,8.6,6.8,8.6,6.8c1.9,0.1,8.9-1.8,7.7-9.2c-0.4-2.4-1.4-3.9-2.6-5C56.2,11.8,53.6,11.7,52.4,11.7
			z M52,12.8c1.6,0,4.4,0.8,5.2,5.6c1.2,6.9-1.9,7.5-2.6,7.9c-1,0.5-5.2,0.9-6.8-6.1C46.3,13.3,51,13,50.7,13
			C50.7,13,51.2,12.8,52,12.8z"/>
		<path id="path8122-4" sodipodi:nodetypes="csscscscscsssssssssssccccccscscccsssssssc" class="st0" d="M70.3,12.3
			c-0.3,0-1,0-1.8,0.2c-2,0.4-4.7,1.7-5.5,4.4c-1.2,4.2,1.9,5.9,1.9,5.9s1.1,0.6,1.5,0.8c1.3,0.4,2.8,0.2,2.8,0.2s-0.6,1.9,0.6,3.2
			c0.3,0.3,0.1,0.3,0.1,0.3s-5-0.1-7.3,2.4c-2.4,2.5-1.1,4.8-1.1,4.8s1.2,3,6.6,3.2c5.4,0.2,8.7-3,9-5.4c0.1-1.2,0-2.3-0.6-3.3
			c-0.6-1-1.6-1.8-2.6-2.6c-0.6-0.5-1-0.8-1.3-1c-0.3-0.3-0.3-0.6-0.3-0.9c0-0.4,0.2-0.8,0.8-1.6c1.2-1.4,1.5-1.2,2.2-2.2
			c0.2-0.3,0.4-0.8,0.6-1.4c0.1-0.4,0.1-0.8,0.1-1.2c0-0.8-0.2-1.6-0.5-2.3c-0.6-1.2-1.7-2-1.7-2.1h1.9l2.1-1.2l-7.1,0
			C70.4,12.3,70.4,12.3,70.3,12.3L70.3,12.3z M68.7,13.4c1.1,0,2.7,0.6,3.7,3.5c1.7,5-1.8,5.8-1.8,5.8s-4,0.6-4.8-3.8
			c-0.8-4.6,1.1-4.8,1.8-5.2C67.6,13.6,68.1,13.4,68.7,13.4z M71,28.2c0,0,3.2,2,3.5,3.4c0.3,1.6,0.4,2.8-2.1,4.1
			c-0.7,0.4-2,0.4-2.8,0.4c-2,0-3.4-0.7-4.2-1.1c-0.4-0.2-2.5-2.6-0.9-4.7c0.4-0.5,0.8-0.8,1.2-1c0.9-0.6,1.7-0.8,3.3-1
			C69.6,28.2,70.3,28.3,71,28.2L71,28.2z"/>
		<path id="path8279-8" sodipodi:nodetypes="cccscsccccscc" class="st0" d="M77.2,4.9l2.5-1.2l4.7,0c0,0-1.3,0.6-1.4,1.6
			c-0.1,1,0,19.6,0,19.6c0,0.5-0.2,1.1,1.1,1.2c1.7,0.2,1.9,0.2,1.9,0.2l-1.2,0.9l-6.2-0.1l0.7-0.7c0,0,0.4-0.3,0.3-1.5s0-20,0-20
			L77.2,4.9L77.2,4.9z"/>
		<path id="path8363-6" sodipodi:nodetypes="cssssscscccssccssscsscssc" class="st0" d="M94.7,11.8c-0.1,0-0.6,0-0.7,0
			c-4.5,0.3-6.6,2.9-7.3,5.2s-0.1,5.7,0.8,7.3c1,1.5,3,3.4,6.3,3.5c3.3,0.1,5-1.5,6.1-2.6c0.1-0.1,0.1-0.2,0.1-0.2s-2,1.2-4.1,1.1
			c-2.3,0-5.8-2.2-6.7-6.8c0.8-0.1,1.6-0.1,2.5-0.1l7.9-3.2c0,0-0.2-1-1-2c-0.5-0.6-1.3-1.2-2.2-1.7C95.8,12,95.5,12,94.7,11.8z
			 M92.7,12.9c0.1,0,0.2,0,0.3,0c0.6,0,1.1,0.1,1.6,0.4c0.3,0.2,0.6,0.5,0.9,0.8c0.7,0.6,0.7,1.4,0.7,1.4c0,0.2,0.1,0.4-0.3,0.7
			c-1,0.6-3.2,1.5-5,2.2c-0.6,0.2-1.2,0.5-1.7,0.7c0,0-0.4-2.1,0.3-3.9c0.3-0.9,1-1.8,2-2.1C92.1,13,92.4,12.9,92.7,12.9z"/>
	</g>
	<g id="layer1" transform="translate(22.808233,-344.01722)" inkscape:groupmode="layer" inkscape:label="Basic">
		<path id="path3640" sodipodi:nodetypes="csssssssssssssssssccccccsssssssssssccc" class="st1" d="M0.3,350.8
			c0.1-0.2-2.5-1.8-6-2.4c-3.1-0.5-6.9-0.6-10.2,1.1c-0.8,0.4-1.4,0.8-2,1.3c-1.6,1.2-2.4,2.3-3,3.2c-0.7,1-1.2,2.4-1.4,3.1
			c-0.3,0.8-0.3,1.6-0.4,2.4c-0.1,0.5-0.1,1.1,0,1.7c0.1,1.4,0.4,2.9,1,4.3c0.5,1,1.1,2,1.8,2.9c1,1.4,2.7,2.4,3.7,2.9
			c0.8,0.4,1.7,0.8,3.3,1.1c1.8,0.3,4.5,0.3,8.9-0.4c1.2-0.2,2.5-0.6,4-0.9c0.1,0,0.2-0.1,0.3-0.1c0.1,0,0.2,0,0.2-0.1
			c-0.1-1.9-0.1-4.1,0-5c0-0.1,0-0.6,0-0.8c0-0.2,0.1-0.2,0.2-0.2l0.9-0.9l-7-0.1l-2.5,1.4l4.9-0.2v5.4c0,0-2,0.8-4.6,0.8
			c-1.9,0-4.3-0.5-6.6-2.2c-3.6-2.7-4.8-6.4-4.8-9c0-1.3,0-2.4,0.1-2.8c0.1-0.4,0.2-1.3,0.7-2.3c0.6-1.4,1.5-2.8,3.2-4
			c1.1-0.7,2.5-1.4,4.1-1.5c1.9-0.2,3.3,0.1,4.4,0.5c2.8,1.1,3.4,2,3.8,2.3c0,0,0.1,0.1,0.1,0.1c0,0.1,0,0.1-0.1,0.2
			c-0.2,0.3-0.7,1.2-0.7,1.2l1.1-0.1L0.3,350.8L0.3,350.8z"/>
		<path id="path7733" sodipodi:nodetypes="ccsscsssccssscc" class="st2" d="M10.9,355.6c-0.4,0-0.6,0-0.6,0c0.3-0.1-8.1,0.9-7.2,9.2
			c0.2,2.3,1.3,3.7,2.5,4.7c2.6,2.1,6.1,2.1,6.1,2.1c1.2,0.1,4.5-1,6.3-3.7c0.9-1.4,1.7-3,1.4-5.5c-0.4-2.4-1.4-3.9-2.6-5
			C14.7,355.8,12.1,355.6,10.9,355.6L10.9,355.6z M10.5,356.7c1.6,0,4.4,0.8,5.2,5.6c1.2,6.9-1.9,7.5-2.6,7.9
			c-1,0.5-5.2,0.9-6.8-6.1c-1.5-6.9,3.2-7.3,2.9-7.2C9.2,356.9,9.7,356.7,10.5,356.7z"/>
		<path id="path8122" sodipodi:nodetypes="csscscscscsssssssssssccccccscscccsssssssc" class="st3" d="M47.3,356c-0.3,0-1,0-1.8,0.2
			c-2,0.4-4.7,1.7-5.5,4.4c-1.2,4.2,1.9,5.9,1.9,5.9s1.1,0.6,1.5,0.8c1.3,0.4,2.8,0.2,2.8,0.2s-0.6,1.9,0.6,3.2
			c0.3,0.3,0.1,0.3,0.1,0.3s-5-0.1-7.3,2.4c-2.4,2.5-1.1,4.8-1.1,4.8s1.2,3,6.6,3.2c5.4,0.2,8.7-3,9-5.4c0.1-1.2,0-2.3-0.6-3.3
			c-0.6-1-1.6-1.8-2.6-2.6c-0.6-0.5-1-0.8-1.3-1c-0.3-0.3-0.3-0.6-0.3-0.9c0-0.4,0.2-0.8,0.8-1.6c1.2-1.4,1.5-1.2,2.2-2.2
			c0.2-0.3,0.4-0.8,0.6-1.4c0.1-0.4,0.1-0.8,0.1-1.2c0-0.8-0.2-1.6-0.5-2.3c-0.6-1.2-1.7-2-1.7-2.1h1.9l2.1-1.2l-7.1,0
			C47.5,356,47.4,356,47.3,356z M45.8,357.2c1.1,0,2.7,0.6,3.7,3.5c1.7,5-1.8,5.8-1.8,5.8s-4,0.6-4.8-3.8c-0.8-4.6,1.1-4.8,1.8-5.2
			C44.7,357.4,45.2,357.2,45.8,357.2z M48,372c0,0,3.2,2,3.5,3.4c0.3,1.6,0.4,2.8-2.1,4.1c-0.7,0.4-2,0.4-2.8,0.4
			c-2,0-3.4-0.7-4.2-1.1c-0.4-0.2-2.5-2.6-0.9-4.7c0.4-0.5,0.8-0.8,1.2-1c0.9-0.6,1.7-0.8,3.3-1C46.6,372,47.3,372,48,372z"/>
		<path id="path8279" sodipodi:nodetypes="cccscsccccscc" class="st4" d="M54.2,348.6l2.5-1.2l4.7,0c0,0-1.3,0.6-1.4,1.6
			c-0.1,1,0,19.6,0,19.6c0,0.5-0.2,1.1,1.1,1.2c1.7,0.2,1.9,0.2,1.9,0.2l-1.2,0.9l-6.2-0.1l0.7-0.7c0,0,0.4-0.3,0.3-1.5
			c0-1.2,0-20,0-20L54.2,348.6L54.2,348.6z"/>
		<path id="path8363" sodipodi:nodetypes="cssssscscccssccssscsscssc" class="st5" d="M71.8,355.6c-0.1,0-0.7-0.1-0.8,0
			c-4.5,0.3-6.6,2.9-7.3,5.2c-0.7,2.3-0.1,5.7,0.8,7.3c1,1.5,3,3.4,6.3,3.5c3.3,0.1,5-1.5,6.1-2.6c0.1-0.1,0.1-0.2,0.1-0.2
			s-2,1.2-4.1,1.1c-2.3,0-5.8-2.2-6.7-6.8c0.8-0.1,1.6-0.1,2.5-0.1l7.9-3.2c0,0-0.2-1-1-2c-0.5-0.6-1.3-1.2-2.2-1.7
			C72.8,355.7,72.6,355.8,71.8,355.6z M69.8,356.7c0.1,0,0.2,0,0.3,0c0.6,0,1.1,0.1,1.6,0.4c0.3,0.2,0.6,0.5,0.9,0.8
			c0.7,0.6,0.7,1.4,0.7,1.4c0,0.2,0.1,0.4-0.3,0.7c-1,0.6-3.2,1.5-5,2.2c-0.6,0.2-1.2,0.5-1.7,0.7c0,0-0.4-2.1,0.3-3.9
			c0.3-0.9,1-1.8,2-2.1C69.1,356.7,69.5,356.7,69.8,356.7z"/>
		<path id="path8568" sodipodi:nodetypes="cscssc" class="st6" d="M-22,365c0,0,7.7,7,8.6,7.2s-2-0.4-2-0.4s-3.8-2.2-4.1-2.5
			c-0.2-0.2-2.1-2.9-2.1-3.3S-22,365-22,365L-22,365z"/>
		<path id="path7733-4" sodipodi:nodetypes="ccsscsssccssscc" class="st7" d="M29.3,355.6c-0.4,0-0.6,0-0.6,0
			c0.3-0.1-8.1,0.9-7.2,9.2c0.2,2.3,1.3,3.7,2.5,4.7c2.6,2.1,6.1,2.1,6.1,2.1c1.2,0.1,4.5-1,6.3-3.7c0.9-1.4,1.7-3,1.4-5.5
			c-0.4-2.4-1.4-3.9-2.6-5C33.1,355.7,30.5,355.6,29.3,355.6L29.3,355.6z M28.9,356.7c1.6,0,4.4,0.8,5.2,5.6
			c1.2,6.9-1.9,7.5-2.6,7.9c-1,0.5-5.2,0.9-6.8-6.1c-1.5-6.9,3.2-7.3,2.9-7.2C27.6,356.9,28.1,356.7,28.9,356.7L28.9,356.7z"/>
	</g>
	<g id="layer3" transform="translate(22.808233,-344.01722)" inkscape:groupmode="layer" inkscape:label="Secondary">
		
			<linearGradient id="path3643_00000011739853394971727990000012425045899097609356_" gradientUnits="userSpaceOnUse" x1="-20.6647" y1="-38.0521" x2="-20.5749" y2="-40.2728" gradientTransform="matrix(0.8854 0 0 -0.793 16.4772 334.611)">
			<stop  offset="0" style="stop-color:#FFFFFF"/>
			<stop  offset="1" style="stop-color:#000000;stop-opacity:0.9474"/>
		</linearGradient>
		
			<path id="path3643" sodipodi:nodetypes="ccsscscccc" style="opacity:0.6053;fill:url(#path3643_00000011739853394971727990000012425045899097609356_);enable-background:new    ;" d="
			M-5,364.8l1.4,0.3c0,0,0.7,0.1,1.5,0.2l0.2,0c0.6,0.1,0.1,0.7,0.7,0.7c0,0,0.7,0.2,1.2-0.5c0.3-0.4,0.6-0.6,0.6-0.6l0.8-0.4
			l-5.6,0L-5,364.8L-5,364.8z"/>
		<path id="path7589" sodipodi:nodetypes="ccssscscsc" class="st9" d="M-1,350.1l-1.6,0.8c0,0-4.7-2.5-7.8-2.1s-6.4,1.1-8.3,4.4
			c-2,3.3-2.8,5.2-2.1,8.1s-1.9,0-1.9,0s-0.7-5.2,3.4-9.4s10.1-3.9,10.1-3.9s4.5,0.4,5.8,0.8C-2.2,349.3-0.8,350.2-1,350.1L-1,350.1
			z"/>
		
			<linearGradient id="path7627_00000147201225554332333670000004532760102466819213_" gradientUnits="userSpaceOnUse" x1="-38.457" y1="18.307" x2="-28.5325" y2="15.7784" gradientTransform="matrix(1 0 0 -1 22.8082 387.6674)">
			<stop  offset="0" style="stop-color:#FFFFFF"/>
			<stop  offset="1" style="stop-color:#FFFFFF"/>
		</linearGradient>
		
			<path id="path7627" style="opacity:0.115;fill:url(#path7627_00000147201225554332333670000004532760102466819213_);enable-background:new    ;" d="
			M-15.6,368.2l-1.4,0.3c0,0,3.3,2.9,5.8,3.2s4.6-0.2,4.6-0.2s-4.5-0.2-6.2-1.2S-15.8,368-15.6,368.2L-15.6,368.2z"/>
		
			<linearGradient id="path7683_00000152238345414333977930000017067137447435004320_" gradientUnits="userSpaceOnUse" x1="-26.1752" y1="18.7496" x2="-26.1752" y2="22.0642" gradientTransform="matrix(1 0 0 -1 23.6279 387.6674)">
			<stop  offset="0" style="stop-color:#000000"/>
			<stop  offset="1" style="stop-color:#000000;stop-opacity:0"/>
		</linearGradient>
		
			<path id="path7683" sodipodi:nodetypes="ccccccc" style="opacity:0.1683;fill:url(#path7683_00000152238345414333977930000017067137447435004320_);enable-background:new    ;" d="
			M0.3,366.4l-1.9,0.7l0.2,3.6l-3.4,1l-0.7,0.6l5.9-1.2L0.3,366.4z"/>
		<path id="path7738" inkscape:connector-curvature="0" sodipodi:nodetypes="ccscscsc" class="st12" d="M3.3,361.3l1.6,1.1
			c0,0,0.9-4.9,3.2-5.7S11,356,11,356s4.3,1.2,4.9,2.8c1.8,4.8,1.8-0.4,1.8-0.4s-3-3.2-7.2-2.8C6.2,356.1,3.4,359.5,3.3,361.3
			L3.3,361.3z"/>
		<path id="path7772" inkscape:connector-curvature="0" sodipodi:nodetypes="csssscsc" class="st13" d="M4.5,366.1
			c0,0-0.6-4.1,0.1-4.1c0.7-0.1,1,4.7,1.4,5.2c1.9,2.2,3.3,3.9,6.5,3.5s5.2-2.1,5.3-7.5c0.1-3.6,1.1-0.3,1.1-0.3
			c-2.5,5.6-3.1,8-6.9,8.2C9.2,371.3,5.2,367.6,4.5,366.1L4.5,366.1z"/>
		<path id="path7738-5" class="st12" d="M22.2,361l1.3,0.2c0,0,1.2-4,3.5-4.7s2.9-0.7,2.9-0.7s4.3,1.2,4.9,2.8
			c0.6,1.6,1.8-0.4,1.8-0.4s-3-3.2-7.2-2.8C25.1,355.7,22.3,359.2,22.2,361z"/>
		<path id="path7772-8" inkscape:connector-curvature="0" sodipodi:nodetypes="czsssscsc" class="st14" d="M22.6,365.5
			c0,0,1.1-2.5,0.4-2.6c-0.7,0,0.7,3,1.7,4.1c2.4,2.7,3.3,4,6.4,3.7c2.6-0.3,3.7-1,4.3-4.7c0.1-0.7,0.6-2.5,0.6-3.4
			c0-2.2,1.4,0.5,1.4,0.5c-2.3,5.3-2.8,7.5-6.8,7.9C27.7,371.3,25.4,370,22.6,365.5L22.6,365.5z"/>
		<path id="path7846" inkscape:connector-curvature="0" sodipodi:nodetypes="cscc" class="st15" d="M25.2,358c0,0-2,0.9-2,2.8
			c-0.1,1.9,1.5,4.4,1.5,4.4S23.2,361.4,25.2,358L25.2,358z"/>
		<path id="path7846-0" inkscape:connector-curvature="0" sodipodi:nodetypes="cscc" class="st16" d="M6.6,358.3
			c0,0-1.6,0.9-1.7,2.8c-0.1,1.9,1.2,4.4,1.2,4.4S4.6,361.6,6.6,358.3L6.6,358.3z"/>
		<path id="path8131" sodipodi:nodetypes="ccscscssscc" class="st17" d="M50,357.7c-0.5,1.1-2.2-0.8-2.2-0.8s-1.9-0.8-2.9-0.1
			c-1,0.7-2,1.3-2,1.3s-1.1,0.3-1.2,2.8c-0.1,2.6,0.5,3.8,0.5,3.8s-2.4-3.7-1.9-4.6c0.5-0.9,1.4-2.1,2.5-2.9c1-0.7,2-1.1,4.2-1.2
			c2.2-0.1,5.5,0.1,5.5,0.1C51.5,356,50.5,357,50,357.7L50,357.7z"/>
		<path id="path8155" class="st18" d="M49.5,365.2c0,0-0.4,1.2-0.9,1.7c-0.6,0.5-0.5,1.5-0.5,1.5s-0.8,0.3-1.2-0.2
			c-0.4-0.5-0.2-0.8-1-1.2c-0.8-0.5,0.1-0.5,0.1-0.5s0.8,0.3,1.6,0.1C48.4,366.3,49.5,365.2,49.5,365.2z"/>
		<path id="path8177" class="st19" d="M41,365.6c0,0,0.9-1.8,1.5-0.9s1.2,2.4,1.9,2.5s0.3,0.3,0.3,0.3s-0.7,0.1-1.4-0.3
			C42.5,366.9,41.2,366.2,41,365.6L41,365.6z"/>
		<path id="path8195" class="st20" d="M48.8,358.7c0,0,2.7-0.1,2.6,2.5c-0.1,2.6-1.4,3.3-1.4,3.3s0.3-2.2-0.1-3.3
			C49.4,360.1,48.6,358.7,48.8,358.7z"/>
		<path id="path8217" class="st21" d="M49.9,369.4c0,0-0.5,0.5-1.1,0.4c-0.6-0.2,3.7,3.3,3.7,3.3s-0.3-1.8,0.2-1.3
			c0.5,0.4-1.6-1.6-2-1.9C50.3,369.7,49.9,369.5,49.9,369.4z"/>
		<path id="path8223" class="st17" d="M45.7,371c0,0-4.5,0.9-5.1,2.7c-0.6,1.9-0.8,2-0.8,3.2c0,1.2-1.3-1.4-0.9-2.5s2.1-2.3,2.1-2.3
			s2.4-1,3.4-1.1C45.4,371.1,45.8,371.1,45.7,371L45.7,371z"/>
		<path id="path8245" sodipodi:nodetypes="ccscsc" class="st22" d="M41.9,378.3l-0.7,0.2c0,0,1.6,2.1,6.1,1.8
			c2.1-0.2,3.5-1.6,3.5-1.6s-1.8,1.4-4.5,1.2C43.4,379.6,42,378.4,41.9,378.3L41.9,378.3z"/>
		<path id="path8255" sodipodi:nodetypes="csssscssc" class="st23" d="M53.5,373.9c0,0-0.8,1.3-1,2.3s0.1,2.5-1.5,3.2
			c-1.6,0.8-4.2,1.7-5.5,1.6c-1.3-0.1-4.4-1-5-1.3c-0.6-0.3-1.5-0.8-1.5-0.8s2.1,2.8,7.3,2.4c5.1-0.5,7.7-3.9,7.5-5.9
			C53.7,374.3,53.7,373.9,53.5,373.9L53.5,373.9z"/>
		<path id="path8261" class="st24" d="M46.1,372c0,0,1.1-1.2,2-0.8c0.8,0.5,2.3,2.4,2.3,2.4L48,372H46.1z"/>
		<path id="path8281" sodipodi:nodetypes="cscsccsc" class="st25" d="M61.3,347.5c0,0-1.6,0.1-2,0.9c-0.4,0.8-0.3,20.8-0.3,20.8
			s0.9,1,1.1-0.5c0.1-1.5,0-1.9,0-1.9l0-17.4c0,0,0-1,0.7-1.4C61.5,347.7,61.4,347.5,61.3,347.5L61.3,347.5z"/>
		<path id="path8299" class="st26" d="M56.2,370.8c0,0,1.1-1.2,2.1-1.2c1.1,0,1.3,0.7,2.2,0.8s2.4-0.2,2.4-0.2l-0.9,0.7L56.2,370.8z
			"/>
		<path id="path8349" class="st27" d="M56.9,350.3l0.7-1.6c0,0,0.6-0.7-0.7-0.6c-1.3,0.1-2.4,0.4-2.4,0.4h2.3L56.9,350.3L56.9,350.3
			z"/>
		<path id="path8369" sodipodi:nodetypes="cssscsccc" class="st28" d="M70.3,362.2c0,0,0.7-0.7,1.7-1.2c0.6-0.3,1.6-0.5,1.6-0.6
			c-0.1-0.4-0.1-0.9,0.5-1.1c1-0.3,2.1-0.7,2.1-0.7s0.5,0.7,0.5,0.9c0,0.3,0,0.3,0,0.3l-4.1,1.7L70.3,362.2z"/>
		<path id="path8399" sodipodi:nodetypes="ccccssscscssc" class="st29" d="M73.8,356.1l0.1,1.4c-0.2-0.3-0.1-0.5-0.6-0.9l-1.3-0.6
			c0,0-0.7-0.2-1.1-0.2c-1.3,0-3.2,0.5-3.4,0.8c-0.3,0.3-1.2,2.1-1.3,2.7s-1.8,2.6-1.8,2.6s-1.2,2.6-1,0.7c0.2-1.9,0.8-3,0.8-3
			s1.2-2.4,3-3.2c1.7-0.8,3.4-1.1,4.7-0.9C73.2,355.7,73.9,356.1,73.8,356.1z"/>
		<path id="path8417" class="st30" d="M64.3,366.9c0,0,2.6,1.8,3.4,2.5c0.9,0.7,3.3,1.5,4.3,1.5c1,0,3.9-1.1,4.1-1.3
			c0.3-0.2-1.1,1-1.1,1s-2,0.9-3.9,0.9s-4.9-0.9-5.8-2.4S64.3,366.8,64.3,366.9L64.3,366.9z"/>
		<path id="path8706" sodipodi:nodetypes="ccssscssc" class="st31" d="M66.8,358.4c-1.8,2.3-0.6,0.5,0.3-1c0,0,0.9-1.2,2.2-1.2
			c0.8,0,1.7,0.1,2.4,0.3c0.6,0.2,1,0.6,1.1,0.6c0.5,0.2-1.6-0.4-1.6-0.4l0,0c0,0-1.7-0.6-3.1,0.2C67.1,357.7,62.2,365,66.8,358.4
			L66.8,358.4z"/>
		<path id="path7144" inkscape:connector-curvature="0" sodipodi:nodetypes="csc" class="st32" d="M34.4,367.2
			c-0.1,0.6-0.5,1.6-1.4,2.3c-0.7,0.6-2,1-2,1"/>
		<path id="path7174" inkscape:connector-curvature="0" sodipodi:nodetypes="csc" class="st33" d="M15.9,367.1
			c-0.1,0.6-0.4,1.6-1.3,2.4c-0.7,0.6-2,1.1-2,1.1"/>
	</g>
</g>
</svg>
