<svg width="7" height="5" viewBox="0 0 7 5" fill="none" xmlns="http://www.w3.org/2000/svg">
<g filter="url(#filter0_d_15_193)">
<path d="M7 0.5C7 0.223858 6.77614 0 6.5 0H0.5C0.223858 0 0 0.223858 0 0.5C0 0.776142 0.223858 1 0.5 1C0.776142 1 1 1.22386 1 1.5C1 1.77614 1.22386 2 1.5 2C1.77614 2 2 2.22386 2 2.5C2 2.77614 2.22386 3 2.5 3C2.77614 3 3 3.22386 3 3.5C3 3.77614 3.22386 4 3.5 4C3.77614 4 4 3.77614 4 3.5C4 3.22386 4.22386 3 4.5 3C4.77614 3 5 2.77614 5 2.5C5 2.22386 5.22386 2 5.5 2C5.77614 2 6 1.77614 6 1.5C6 1.22386 6.22386 1 6.5 1C6.77614 1 7 0.776142 7 0.5Z" fill="url(#paint0_linear_15_193)" shape-rendering="crispEdges"/>
</g>
<defs>
<filter id="filter0_d_15_193" x="0" y="0" width="7" height="5" filterUnits="userSpaceOnUse" color-interpolation-filters="sRGB">
<feFlood flood-opacity="0" result="BackgroundImageFix"/>
<feColorMatrix in="SourceAlpha" type="matrix" values="0 0 0 0 0 0 0 0 0 0 0 0 0 0 0 0 0 0 127 0" result="hardAlpha"/>
<feOffset dy="1"/>
<feComposite in2="hardAlpha" operator="out"/>
<feColorMatrix type="matrix" values="0 0 0 0 1 0 0 0 0 1 0 0 0 0 1 0 0 0 1 0"/>
<feBlend mode="normal" in2="BackgroundImageFix" result="effect1_dropShadow_15_193"/>
<feBlend mode="normal" in="SourceGraphic" in2="effect1_dropShadow_15_193" result="shape"/>
</filter>
<linearGradient id="paint0_linear_15_193" x1="3.5" y1="0" x2="3.5" y2="4" gradientUnits="userSpaceOnUse">
<stop/>
<stop offset="1" stop-opacity="0.5"/>
</linearGradient>
</defs>
</svg>
