<svg width="4" height="8" viewBox="0 0 4 8" fill="none" xmlns="http://www.w3.org/2000/svg">
<path d="M0 0.5V7.5C0 7.77614 0.223858 8 0.5 8C0.776142 8 1 7.77614 1 7.5C1 7.22386 1.22386 7 1.5 7C1.77614 7 2 6.77614 2 6.5C2 6.22386 2.22386 6 2.5 6C2.77614 6 3 5.77614 3 5.5C3 5.22386 3.22386 5 3.5 5C3.77614 5 4 4.77614 4 4.5V3.5C4 3.22386 3.77614 3 3.5 3C3.22386 3 3 2.77614 3 2.5C3 2.22386 2.77614 2 2.5 2C2.22386 2 2 1.77614 2 1.5C2 1.22386 1.77614 1 1.5 1C1.22386 1 1 0.776142 1 0.5C1 0.223858 0.776142 0 0.5 0C0.223858 0 0 0.223858 0 0.5Z" fill="black"/>
</svg>
