<svg width="73" height="75" viewBox="0 0 73 75" fill="none" xmlns="http://www.w3.org/2000/svg">
<g filter="url(#filter0_d_31_4)">
<path d="M28.2006 23.5882C28.22 23.5893 28.2103 23.5886 28.2006 23.5882ZM21.0432 20.0172C21.0627 20.0182 21.053 20.0175 21.0432 20.0172ZM63.8618 25.531C62.57 22.4302 59.9537 19.0824 57.8994 18.0244C59.5715 21.2951 60.5392 24.5773 60.909 27.0263C60.909 27.0312 60.9108 27.0431 60.9148 27.0757C57.554 18.7159 51.8553 15.3446 47.2013 8.00518C46.9664 7.63392 46.7308 7.26192 46.5012 6.86968C46.3843 6.66939 46.2752 6.46468 46.174 6.25602C45.9811 5.88367 45.8323 5.49018 45.7306 5.08349C45.7314 5.06421 45.7249 5.04536 45.7124 5.03065C45.6999 5.01593 45.6823 5.00643 45.6631 5.004C45.6449 4.99867 45.6255 4.99867 45.6073 5.004C45.6033 5.00536 45.5969 5.0103 45.5926 5.01203C45.5861 5.01449 45.5778 5.02054 45.5709 5.02375C45.5741 5.01931 45.5811 5.00931 45.5832 5.00709C38.9746 8.87026 36.2353 15.633 35.5309 19.9377C33.4891 20.0535 31.489 20.5628 29.6412 21.4377C29.4731 21.5207 29.3417 21.6627 29.2723 21.8366C29.2029 22.0104 29.2003 22.2038 29.2651 22.3794C29.299 22.4773 29.3531 22.5671 29.4237 22.643C29.4944 22.7188 29.5801 22.7792 29.6754 22.8201C29.7708 22.8611 29.8736 22.8817 29.9774 22.8808C30.0812 22.8798 30.1837 22.8572 30.2782 22.8145C31.8904 22.0553 33.63 21.6022 35.4083 21.4783C35.4661 21.4742 35.5241 21.4706 35.582 21.4659C35.8263 21.4511 36.0709 21.4424 36.3156 21.4399C37.7586 21.4299 39.1953 21.6285 40.5812 22.0295C40.6621 22.0532 40.7414 22.0806 40.8219 22.1055C41.052 22.1758 41.2804 22.2516 41.5069 22.3329C41.6726 22.3943 41.8372 22.4587 42.0006 22.5259C42.1334 22.5795 42.2662 22.633 42.3971 22.6902C42.6012 22.7805 42.8033 22.8754 43.0031 22.9749C43.0949 23.0203 43.1867 23.0656 43.2772 23.1128C43.4723 23.2149 43.6651 23.3214 43.8554 23.4321C43.9783 23.5032 44.1 23.5763 44.2205 23.6513C46.3734 24.9805 48.1599 26.825 49.4182 29.0174C47.8311 27.9047 44.9895 26.8059 42.2518 27.2811C52.942 32.6147 50.072 50.9818 35.2587 50.2883C33.9396 50.2346 32.636 49.9837 31.3914 49.5439C31.097 49.4336 30.8059 49.3148 30.5184 49.1877C30.3507 49.1114 30.1831 49.0343 30.0174 48.9489C26.3878 47.0768 23.3907 43.5388 23.0162 39.2424C23.0162 39.2424 24.3881 34.1407 32.8399 34.1407C33.7535 34.1407 36.3655 31.5965 36.414 30.8585C36.4028 30.6175 31.23 28.564 29.2134 26.5811C28.1358 25.5215 27.6241 25.0108 27.1711 24.6274C26.9252 24.4203 26.6682 24.2266 26.4013 24.0473C25.7238 21.682 25.6949 19.1785 26.3178 16.7983C23.2647 18.1858 20.8898 20.3789 19.1635 22.3153H19.1498C17.9714 20.826 18.0547 15.913 18.1218 14.8872C18.1077 14.8235 17.2429 15.3352 17.1295 15.4122C16.0898 16.1529 15.1179 16.9839 14.2249 17.8955C13.2088 18.9238 12.2804 20.0349 11.4494 21.2172C11.4494 21.2187 11.4485 21.2203 11.448 21.2218C11.448 21.2203 11.4489 21.2188 11.4494 21.2172C9.53825 23.9204 8.18291 26.9746 7.4617 30.2036C7.45453 30.2363 7.1785 31.4445 6.97691 32.9371C6.94271 33.1692 6.91101 33.4017 6.88181 33.6346C6.8128 34.0833 6.75913 34.5726 6.70619 35.3337C6.70384 35.3632 6.70236 35.3922 6.70026 35.4216C6.6782 35.7504 6.65837 36.0793 6.64077 36.4084C6.64077 36.4591 6.63768 36.5091 6.63768 36.5598C6.63768 52.9393 19.9447 66.2174 36.3589 66.2174C51.0592 66.2174 63.2648 55.5674 65.6545 41.5782C65.7048 41.1987 65.745 40.817 65.7895 40.4341C66.3803 35.3478 65.724 30.0017 63.8618 25.531Z" fill="url(#paint0_linear_31_4)"/>
</g>
<path d="M62.7706 24.1354C62.9705 23.2493 64.5558 22.0629 65.8627 16.7744C66.234 14.4589 67.0053 2.10941 50.5235 5.62557C28.4145 10.3138 16.1889 27.6659 14.2465 30.0672C10.5616 34.641 -0.407161 52.3076 2.47786 63.1706C4.16317 69.5168 10.7116 69.5311 15.8175 68.4877C20.9234 67.4443 25.8508 63.4779 25.8508 63.4779C25.8508 63.4779 23.8156 65.4003 15.4747 66.7439C7.13389 68.0875 5.87705 61.7412 7.01963 56.7957C8.4193 50.621 12.9611 40.4727 27.6433 26.1794C40.6687 13.4869 54.494 6.39741 61.6922 9.91357C65.5199 11.7717 64.8843 15.831 64.056 18.9184L62.7706 24.1354Z" fill="url(#paint1_linear_31_4)" fill-opacity="0.95"/>
<defs>
<filter id="filter0_d_31_4" x="0.608695" y="0.826087" width="71.4203" height="73.2754" filterUnits="userSpaceOnUse" color-interpolation-filters="sRGB">
<feFlood flood-opacity="0" result="BackgroundImageFix"/>
<feColorMatrix in="SourceAlpha" type="matrix" values="0 0 0 0 0 0 0 0 0 0 0 0 0 0 0 0 0 0 127 0" result="hardAlpha"/>
<feOffset dy="1.85507"/>
<feGaussianBlur stdDeviation="3.01449"/>
<feColorMatrix type="matrix" values="0 0 0 0 0 0 0 0 0 0 0 0 0 0 0 0 0 0 0.25 0"/>
<feBlend mode="normal" in2="BackgroundImageFix" result="effect1_dropShadow_31_4"/>
<feBlend mode="normal" in="SourceGraphic" in2="effect1_dropShadow_31_4" result="shape"/>
</filter>
<linearGradient id="paint0_linear_31_4" x1="36.3188" y1="5" x2="36.3188" y2="66.2174" gradientUnits="userSpaceOnUse">
<stop stop-color="#FFAC1C"/>
<stop offset="1" stop-color="#F52A5E"/>
</linearGradient>
<linearGradient id="paint1_linear_31_4" x1="45.239" y1="1.19464" x2="43.2364" y2="43.5028" gradientUnits="userSpaceOnUse">
<stop stop-color="#00A3FF"/>
<stop offset="0.0001" stop-color="#FFCC49"/>
<stop offset="1" stop-color="#FFA800"/>
</linearGradient>
</defs>
</svg>
