<svg width="73" height="74" viewBox="0 0 73 74" fill="none" xmlns="http://www.w3.org/2000/svg">
<g filter="url(#filter0_d_46_3)">
<path d="M63.8748 25.4581C62.5909 22.3683 59.9906 19.0324 57.9489 17.9781C59.6107 21.2372 60.5725 24.5078 60.9401 26.9481C60.9401 26.953 60.9419 26.9648 60.9458 26.9973C57.6056 18.6672 51.9417 15.3079 47.3161 7.99451C47.0825 7.62457 46.8484 7.25389 46.6203 6.86304C46.504 6.66346 46.3955 6.45948 46.295 6.25156C46.1033 5.88053 45.9554 5.48844 45.8544 5.08319C45.8551 5.06399 45.8486 5.0452 45.8362 5.03054C45.8238 5.01588 45.8063 5.0064 45.7872 5.00399C45.7691 4.99867 45.7499 4.99867 45.7318 5.00399C45.7278 5.00534 45.7215 5.01026 45.7172 5.01198C45.7107 5.01444 45.7024 5.02047 45.6955 5.02367C45.6987 5.01924 45.7058 5.00928 45.7078 5.00706C39.1395 8.85652 36.4169 15.5953 35.7169 19.8847C33.6875 20 31.6996 20.5076 29.8631 21.3793C29.6961 21.462 29.5655 21.6036 29.4965 21.7768C29.4275 21.95 29.4249 22.1427 29.4893 22.3177C29.5231 22.4152 29.5767 22.5047 29.647 22.5803C29.7172 22.6559 29.8024 22.7161 29.8972 22.7569C29.9919 22.7977 30.0941 22.8182 30.1973 22.8173C30.3005 22.8163 30.4023 22.7938 30.4963 22.7512C32.0986 21.9948 33.8276 21.5433 35.595 21.4198C35.6525 21.4157 35.7102 21.4121 35.7677 21.4075C36.0105 21.3927 36.2536 21.384 36.4968 21.3815C37.9309 21.3715 39.3589 21.5694 40.7363 21.969C40.8167 21.9926 40.8955 22.0199 40.9755 22.0448C41.2043 22.1148 41.4313 22.1903 41.6564 22.2713C41.8211 22.3325 41.9846 22.3967 42.1471 22.4637C42.2791 22.517 42.4111 22.5704 42.5411 22.6274C42.744 22.7173 42.9448 22.8119 43.1434 22.9111C43.2348 22.9563 43.326 23.0015 43.4159 23.0485C43.6098 23.1503 43.8014 23.2563 43.9906 23.3666C44.1127 23.4375 44.2336 23.5103 44.3534 23.585C46.4932 24.9096 48.2688 26.7475 49.5194 28.9321C47.942 27.8234 45.1177 26.7284 42.3967 27.2019C53.0218 32.5166 50.1692 50.8185 35.4464 50.1275C34.1353 50.074 32.8396 49.824 31.6026 49.3857C31.3101 49.2758 31.0207 49.1574 30.735 49.0308C30.5683 48.9548 30.4018 48.8779 30.237 48.7928C26.6296 46.9274 23.6508 43.402 23.2786 39.1209C23.2786 39.1209 24.6421 34.0372 33.0422 34.0372C33.9504 34.0372 36.5464 31.502 36.5945 30.7667C36.5835 30.5265 31.4422 28.4804 29.438 26.5045C28.3669 25.4486 27.8584 24.9397 27.4081 24.5577C27.1637 24.3513 26.9083 24.1584 26.643 23.9797C25.9696 21.6228 25.9409 19.1282 26.56 16.7564C23.5255 18.139 21.1652 20.3243 19.4494 22.2538H19.4357C18.2646 20.7698 18.3473 15.8742 18.414 14.8521C18.4 14.7886 17.5405 15.2985 17.4278 15.3753C16.3945 16.1133 15.4284 16.9414 14.5409 17.8497C13.5311 18.8744 12.6083 19.9815 11.7823 21.1596C9.88286 23.8532 8.5358 26.8966 7.81899 30.1141C7.81187 30.1467 7.53751 31.3506 7.33716 32.8379C7.30317 33.0692 7.27166 33.3009 7.24264 33.5329C7.17405 33.98 7.1207 34.4676 7.0681 35.226C7.06576 35.2554 7.06429 35.2843 7.0622 35.3136C7.04027 35.6412 7.02056 35.969 7.00307 36.2969C7.00307 36.3474 7 36.3972 7 36.4478C7 52.7691 20.2258 66 36.5398 66C51.1503 66 63.2815 55.3878 65.6566 41.4484C65.7066 41.0702 65.7466 40.6898 65.7908 40.3083C66.378 35.24 65.7257 29.9129 63.8748 25.4581Z" fill="url(#paint0_linear_46_3)"/>
</g>
<defs>
<filter id="filter0_d_46_3" x="0.971014" y="0.826087" width="71.058" height="73.058" filterUnits="userSpaceOnUse" color-interpolation-filters="sRGB">
<feFlood flood-opacity="0" result="BackgroundImageFix"/>
<feColorMatrix in="SourceAlpha" type="matrix" values="0 0 0 0 0 0 0 0 0 0 0 0 0 0 0 0 0 0 127 0" result="hardAlpha"/>
<feOffset dy="1.85507"/>
<feGaussianBlur stdDeviation="3.01449"/>
<feColorMatrix type="matrix" values="0 0 0 0 0 0 0 0 0 0 0 0 0 0 0 0 0 0 0.25 0"/>
<feBlend mode="normal" in2="BackgroundImageFix" result="effect1_dropShadow_46_3"/>
<feBlend mode="normal" in="SourceGraphic" in2="effect1_dropShadow_46_3" result="shape"/>
</filter>
<linearGradient id="paint0_linear_46_3" x1="36.5" y1="5" x2="36.5" y2="66" gradientUnits="userSpaceOnUse">
<stop stop-color="#FFAC1C"/>
<stop offset="1" stop-color="#F52A5E"/>
</linearGradient>
</defs>
</svg>
