<svg width="70" height="74" viewBox="0 0 70 74" fill="none" xmlns="http://www.w3.org/2000/svg">
<g filter="url(#filter0_d_48_72)">
<path fill-rule="evenodd" clip-rule="evenodd" d="M7.0119 52.1075C6.96369 52.101 6.91282 52.1689 6.94268 52.2073C13.4678 60.6002 23.6608 66 35.115 66C37.9836 66 40.7732 65.6613 43.4458 65.0217C43.5665 64.9928 43.7001 64.7597 43.7361 64.6409V64.6409C44.0518 63.6001 44.2739 62.1947 44.3506 60.7529C44.4721 58.4688 45.9179 54.846 47.3664 53.1964C48.6404 51.7453 48.8841 50.589 48.9092 45.8764C48.9299 41.9752 48.9719 41.5198 49.4733 39.7706C50.3268 36.793 51.2111 34.6904 52.2437 33.183C52.7684 32.4169 53.6067 31.0499 54.1064 30.1451C54.6061 29.2403 55.3315 28.0217 55.7185 27.4372C56.7292 25.9102 58.8891 23.8014 59.9559 23.2999C61.1482 22.7394 62.462 21.2301 62.8967 19.9215C63.3435 18.5762 63.2066 16.4532 62.6228 15.6743C62.2787 15.2152 62.0605 15.1335 61.1791 15.1335C60.3718 15.1335 60.0257 15.0257 59.6243 14.6493C59.0722 14.1314 58.6663 14.2014 58.6663 14.8144C58.6663 15.2952 57.9311 16.2134 57.717 16.0001C57.6278 15.9112 57.722 15.4023 57.9264 14.8691C58.6753 12.915 58.9196 11.6664 58.8 10.4038C58.6028 8.32203 57.305 5.13738 56.5983 5.00121C56.4283 4.96849 55.5055 5.60128 54.5475 6.4074C49.5515 10.6113 45.755 13.4946 43.1114 15.0925C41.8499 15.855 41.8459 15.856 39.7184 15.8098C37.1995 15.7552 36.844 15.887 32.6425 18.4342C31.1872 19.3164 29.5476 20.2088 28.9989 20.4173C28.4473 20.6268 26.6962 20.9305 25.0833 21.0963C21.7707 21.4367 20.8843 21.6424 19.6449 22.3583C18.4192 23.0663 18.1114 23.5933 18.3722 24.5378C18.6276 25.4625 19.9847 27.2811 21.6163 28.8848L22.8447 30.0921L21.8952 31.5581C21.373 32.3643 20.5875 33.8539 20.1497 34.8681C19.2795 36.8839 19.0411 37.2639 17.3066 39.3988C15.8041 41.2483 14.1411 43.9113 12.5857 46.9585C11.2556 49.5644 10.6188 50.2401 8.17716 51.6371C8.15477 51.6499 8.13275 51.6625 8.1111 51.6749C7.59686 51.9695 7.28986 52.1453 7.0119 52.1075V52.1075ZM36.8172 20.8376L38.7164 18.4053L41.7723 17.9767L39.8731 20.4089L36.8172 20.8376Z" fill="url(#paint0_linear_48_72)"/>
</g>
<defs>
<filter id="filter0_d_48_72" x="0.904852" y="0.826087" width="68.2855" height="73.058" filterUnits="userSpaceOnUse" color-interpolation-filters="sRGB">
<feFlood flood-opacity="0" result="BackgroundImageFix"/>
<feColorMatrix in="SourceAlpha" type="matrix" values="0 0 0 0 0 0 0 0 0 0 0 0 0 0 0 0 0 0 127 0" result="hardAlpha"/>
<feOffset dy="1.85507"/>
<feGaussianBlur stdDeviation="3.01449"/>
<feColorMatrix type="matrix" values="0 0 0 0 0 0 0 0 0 0 0 0 0 0 0 0 0 0 0.25 0"/>
<feBlend mode="normal" in2="BackgroundImageFix" result="effect1_dropShadow_48_72"/>
<feBlend mode="normal" in="SourceGraphic" in2="effect1_dropShadow_48_72" result="shape"/>
</filter>
<linearGradient id="paint0_linear_48_72" x1="34.9885" y1="5" x2="34.9885" y2="66" gradientUnits="userSpaceOnUse">
<stop stop-color="#C8DAF2"/>
<stop offset="1" stop-color="#0696DD"/>
</linearGradient>
</defs>
</svg>
