<svg width="68" height="74" viewBox="0 0 68 74" fill="none" xmlns="http://www.w3.org/2000/svg">
<g filter="url(#filter0_d_46_56)">
<path d="M6.8175 38.0558C6.8175 24.3181 16.5343 12.8911 29.3518 10.5111C31.0843 5.12597 35.7688 4.78808 37.9269 5.3058C37.0857 6.16211 36.0378 7.90324 35.9716 10.1056C35.9704 10.1461 35.9695 10.1868 35.9689 10.2277C35.9482 11.7741 36.4148 13.5406 37.7706 15.3839C37.2967 14.4672 36.4269 12.2152 36.7394 10.5402L36.7432 10.52C37.8478 10.825 40.2055 11.5659 41.5519 12.3058L41.6964 12.3852C43.4176 13.3312 45.7234 14.5986 46.8175 15.0089C47.6117 15.3067 48.7408 15.5267 49.9353 15.6303C50.4863 15.6573 51.0493 15.6393 51.5936 15.557C50.8302 17.8324 47.5864 22.7581 40.719 24.2586L29.7181 24.547C28.5158 24.7033 25.5341 25.2323 23.2257 26.0979C25.1855 26.6269 29.5161 28.3702 31.1609 31.1114C28.8885 30.9431 23.9317 32.3934 21.8191 35.9085C19.3153 40.0747 20.1626 44.6898 23.4783 48.244C27.5168 52.5729 34.73 53.2778 38.627 48.8211C40.7247 46.4221 41.5005 41.9921 40.9354 40.9942C42.6907 42.3407 46.2375 46.1376 46.3817 50.5523C46.526 54.9671 45.3838 57.6578 44.7947 58.4513C46.6222 56.9846 50.3348 52.7958 50.5657 47.7751C50.7965 42.7543 49.5077 39.7919 48.8344 38.9383C48.4737 38.1568 47.7812 35.8797 47.8966 33.0231C48.012 30.1664 49.4596 27.216 50.1689 26.0979C51.2083 24.7615 53.9056 22.0217 56.0522 20.8994C56.3389 20.7495 56.6159 20.6285 56.8776 20.5435C56.8134 20.8544 56.7643 21.3118 56.7639 21.8756C56.7637 22.0633 56.769 22.2629 56.781 22.4728C56.8607 23.8747 57.2378 25.7362 58.2843 27.6128C60.3763 31.3639 61.0977 32.8066 61.4223 34.2494C61.5039 34.6121 61.6019 35.0437 61.7035 35.4893C61.779 36.3345 61.8175 37.1906 61.8175 38.0558C61.8175 53.5198 49.5053 66.0558 34.3175 66.0558C19.1297 66.0558 6.8175 53.5198 6.8175 38.0558Z" fill="url(#paint0_linear_46_56)"/>
</g>
<defs>
<filter id="filter0_d_46_56" x="0.788519" y="0.957435" width="67.058" height="72.9824" filterUnits="userSpaceOnUse" color-interpolation-filters="sRGB">
<feFlood flood-opacity="0" result="BackgroundImageFix"/>
<feColorMatrix in="SourceAlpha" type="matrix" values="0 0 0 0 0 0 0 0 0 0 0 0 0 0 0 0 0 0 127 0" result="hardAlpha"/>
<feOffset dy="1.85507"/>
<feGaussianBlur stdDeviation="3.01449"/>
<feColorMatrix type="matrix" values="0 0 0 0 0 0 0 0 0 0 0 0 0 0 0 0 0 0 0.25 0"/>
<feBlend mode="normal" in2="BackgroundImageFix" result="effect1_dropShadow_46_56"/>
<feBlend mode="normal" in="SourceGraphic" in2="effect1_dropShadow_46_56" result="shape"/>
</filter>
<linearGradient id="paint0_linear_46_56" x1="34.3175" y1="5.13135" x2="34.3175" y2="66.0558" gradientUnits="userSpaceOnUse">
<stop stop-color="#6ECDFB"/>
<stop offset="1" stop-color="#17659F"/>
</linearGradient>
</defs>
</svg>
