<svg width="83" height="74" viewBox="0 0 83 74" fill="none" xmlns="http://www.w3.org/2000/svg">
<g filter="url(#filter0_d_54_105)">
<path d="M76.1337 13.4089C62.7351 18.9487 56.2929 15.8344 50.4865 11.9269L43.8766 34.8542C49.6773 38.784 56.6804 42.0153 69.5352 36.2603L76.1337 13.4089Z" fill="url(#paint0_linear_54_105)"/>
<path d="M32.5758 59.4998C26.7564 55.5832 20.4303 52.3618 7 57.9151L13.5762 34.9446C27.0094 29.3904 33.4626 32.5335 39.2762 36.4741L32.5758 59.4998Z" fill="url(#paint1_linear_54_105)"/>
<path d="M40.3929 32.3276C36.8895 29.9686 33.1215 27.7663 27.7703 27.7259C24.2397 27.6987 20.0369 28.7015 14.7014 30.9075L21.3135 7.99656C34.7376 2.44591 41.1856 5.58729 46.9951 9.52497L40.3929 32.3276Z" fill="url(#paint2_linear_54_105)"/>
<path d="M42.7619 38.6842C48.5739 42.5974 55.0299 45.7143 68.4428 40.1703L61.8315 63.0055C48.4163 68.5537 41.9738 65.4118 36.1677 61.4746L42.7619 38.6842Z" fill="url(#paint3_linear_54_105)"/>
</g>
<defs>
<filter id="filter0_d_54_105" x="0.971014" y="0.826087" width="81.1917" height="73.058" filterUnits="userSpaceOnUse" color-interpolation-filters="sRGB">
<feFlood flood-opacity="0" result="BackgroundImageFix"/>
<feColorMatrix in="SourceAlpha" type="matrix" values="0 0 0 0 0 0 0 0 0 0 0 0 0 0 0 0 0 0 127 0" result="hardAlpha"/>
<feOffset dy="1.85507"/>
<feGaussianBlur stdDeviation="3.01449"/>
<feColorMatrix type="matrix" values="0 0 0 0 0 0 0 0 0 0 0 0 0 0 0 0 0 0 0.25 0"/>
<feBlend mode="normal" in2="BackgroundImageFix" result="effect1_dropShadow_54_105"/>
<feBlend mode="normal" in="SourceGraphic" in2="effect1_dropShadow_54_105" result="shape"/>
</filter>
<linearGradient id="paint0_linear_54_105" x1="44.0001" y1="12" x2="76.0001" y2="39" gradientUnits="userSpaceOnUse">
<stop offset="0.17" stop-color="#CCE380"/>
<stop offset="0.83" stop-color="#538919"/>
</linearGradient>
<linearGradient id="paint1_linear_54_105" x1="7" y1="32" x2="39" y2="59" gradientUnits="userSpaceOnUse">
<stop offset="0.185" stop-color="#78ACCB"/>
<stop offset="0.85" stop-color="#285599"/>
</linearGradient>
<linearGradient id="paint2_linear_54_105" x1="15" y1="5" x2="47" y2="32" gradientUnits="userSpaceOnUse">
<stop offset="0.185065" stop-color="#E89612"/>
<stop offset="0.838909" stop-color="#BD0801"/>
<stop offset="1" stop-color="#CD2707"/>
</linearGradient>
<linearGradient id="paint3_linear_54_105" x1="36" y1="39" x2="68" y2="66" gradientUnits="userSpaceOnUse">
<stop offset="0.18" stop-color="#F9B510"/>
<stop offset="0.805" stop-color="#F27B00"/>
</linearGradient>
</defs>
</svg>
