<svg width="154" height="158" viewBox="0 0 154 158" fill="none" xmlns="http://www.w3.org/2000/svg">
<g filter="url(#filter0_d_3_64)">
<path d="M59.495 49.0808C59.516 49.0816 59.5368 49.0832 59.495 49.0808V49.0808ZM44.0619 41.3808C44.083 41.3816 44.104 41.3829 44.0619 41.3808V41.3808ZM136.389 53.27C133.604 46.584 127.963 39.3651 123.533 37.0838C127.138 44.1363 129.225 51.2136 130.022 56.4942C130.022 56.5049 130.026 56.5304 130.035 56.6007C122.788 38.575 110.501 31.3055 100.465 15.4799C99.9587 14.6794 99.4507 13.8773 98.9558 13.0315C98.7037 12.5996 98.4683 12.1582 98.2502 11.7083C97.8343 10.9054 97.5135 10.0569 97.2942 9.18002C97.2958 9.13846 97.2817 9.09781 97.2548 9.06608C97.2278 9.03436 97.1899 9.01386 97.1486 9.00863C97.1093 8.99712 97.0676 8.99712 97.0283 9.00863C97.0195 9.01156 97.0059 9.02221 96.9966 9.02593C96.9825 9.03125 96.9646 9.04429 96.9497 9.05121C96.9566 9.04163 96.9718 9.02008 96.9763 9.01529C82.7265 17.3453 76.8198 31.9275 75.3011 41.2094C70.8983 41.459 66.5857 42.5574 62.6014 44.4437C62.239 44.6227 61.9556 44.929 61.8059 45.3039C61.6562 45.6788 61.6507 46.0956 61.7904 46.4743C61.8636 46.6854 61.98 46.879 62.1324 47.0426C62.2847 47.2063 62.4696 47.3364 62.6752 47.4247C62.8808 47.513 63.1026 47.5575 63.3264 47.5554C63.5502 47.5533 63.7711 47.5046 63.975 47.4124C67.4512 45.7755 71.2022 44.7985 75.0366 44.5313C75.1614 44.5225 75.2864 44.5148 75.4112 44.5047C75.938 44.4727 76.4654 44.4539 76.9931 44.4485C80.1044 44.4269 83.2024 44.8551 86.1907 45.7198C86.3651 45.7709 86.5361 45.83 86.7097 45.8838C87.2059 46.0352 87.6984 46.1987 88.1867 46.374C88.544 46.5065 88.8989 46.6453 89.2513 46.7902C89.5377 46.9057 89.8241 47.0212 90.1062 47.1444C90.5464 47.3391 90.982 47.5438 91.4129 47.7584C91.611 47.8563 91.8089 47.954 92.0041 48.0557C92.4247 48.276 92.8403 48.5055 93.2507 48.7442C93.5156 48.8975 93.7781 49.0551 94.0379 49.2168C98.6802 52.083 102.532 56.0601 105.245 60.7875C101.823 58.3883 95.6961 56.0189 89.7929 57.0435C112.844 68.5442 106.655 108.148 74.7142 106.653C71.8697 106.537 69.0588 105.996 66.3752 105.048C65.7405 104.81 65.1128 104.554 64.4928 104.28C64.1312 104.115 63.7699 103.949 63.4126 103.765C55.5862 99.7281 49.1238 92.0994 48.3163 82.8353C48.3163 82.8353 51.2744 71.8347 69.4984 71.8347C71.4686 71.8347 77.1006 66.3486 77.2051 64.7574C77.1811 64.2376 66.0272 59.81 61.679 55.5343C59.3552 53.2495 58.252 52.1483 57.2752 51.3217C56.7451 50.875 56.1909 50.4574 55.6152 50.0708C54.1543 44.9706 54.0922 39.5725 55.4352 34.44C48.852 37.4319 43.7312 42.1608 40.0088 46.3362H39.9792C37.4384 43.1248 37.6179 32.5311 37.7627 30.3192C37.7323 30.1819 35.8675 31.2853 35.6229 31.4514C33.3812 33.0485 31.2854 34.8404 29.36 36.806C27.1691 39.0233 25.1672 41.4191 23.3752 43.9684C23.3752 43.9716 23.3733 43.9751 23.3723 43.9783C23.3723 43.9751 23.3741 43.9719 23.3752 43.9684C19.2543 49.797 16.3319 56.3827 14.7768 63.3453C14.7613 63.4158 14.1661 66.021 13.7315 69.2393C13.6577 69.7399 13.5894 70.2412 13.5264 70.7433C13.3776 71.7109 13.2619 72.7659 13.1477 74.4071C13.1427 74.4707 13.1395 74.5333 13.1349 74.5966C13.0874 75.3055 13.0446 76.0148 13.0067 76.7243C13.0067 76.8337 13 76.9415 13 77.0509C13 112.369 41.6934 141 77.0864 141C108.784 141 135.102 118.036 140.255 87.8718C140.364 87.0535 140.45 86.2303 140.546 85.4048C141.82 74.4375 140.405 62.9099 136.389 53.27Z" fill="url(#paint0_linear_3_64)"/>
</g>
<defs>
<filter id="filter0_d_3_64" x="0" y="0" width="154" height="158" filterUnits="userSpaceOnUse" color-interpolation-filters="sRGB">
<feFlood flood-opacity="0" result="BackgroundImageFix"/>
<feColorMatrix in="SourceAlpha" type="matrix" values="0 0 0 0 0 0 0 0 0 0 0 0 0 0 0 0 0 0 127 0" result="hardAlpha"/>
<feOffset dy="4"/>
<feGaussianBlur stdDeviation="6.5"/>
<feColorMatrix type="matrix" values="0 0 0 0 0 0 0 0 0 0 0 0 0 0 0 0 0 0 0.25 0"/>
<feBlend mode="normal" in2="BackgroundImageFix" result="effect1_dropShadow_3_64"/>
<feBlend mode="normal" in="SourceGraphic" in2="effect1_dropShadow_3_64" result="shape"/>
</filter>
<linearGradient id="paint0_linear_3_64" x1="77" y1="9" x2="77" y2="141" gradientUnits="userSpaceOnUse">
<stop stop-color="#FFAC1C"/>
<stop offset="1" stop-color="#F52A5E"/>
</linearGradient>
</defs>
</svg>
