<svg width="169" height="168" viewBox="0 0 169 168" fill="none" xmlns="http://www.w3.org/2000/svg">
<g filter="url(#filter0_d_3_66)">
<path d="M75.6856 60.4272C69.2723 60.4272 66.0657 60.4272 64.3575 57.3121C62.6493 54.197 63.9921 52.091 66.6777 47.879C71.3481 40.5542 79.1634 35.6639 88.1555 35.6639C98.494 35.6639 106.637 40.6044 111.067 48.2381C113.457 52.3564 114.652 54.4155 112.921 57.4213C111.19 60.4272 108.08 60.4272 101.861 60.4272H75.6856ZM119.433 89.4355C116.492 89.4355 115.021 89.4355 113.926 89.8853C112.831 90.335 111.079 92.0657 107.575 95.5271C103.158 99.8914 96.6575 102.551 88.0965 102.76C76.8241 103.039 69.1575 96.6446 65.2422 88.7029C63.1778 84.5154 62.1456 82.4217 63.9064 79.5904C65.6673 76.7591 68.6534 76.7591 74.6257 76.7591H111.739H114.629H140.611C142.635 76.7591 143.647 76.7591 144.592 76.4355C146.21 75.8816 147.771 74.3205 148.325 72.7028C148.648 71.7579 148.648 70.9093 148.648 69.2122C148.648 35.9587 121.704 9.01401 88.4503 9.01401C55.1968 9.01401 28.2521 35.9587 28.2521 69.2122C28.2521 102.466 55.1968 129.41 88.4503 129.41C108.556 129.41 126.332 119.568 137.263 104.45C141.348 98.8005 143.391 95.9755 141.72 92.7055C140.049 89.4355 136.081 89.4355 128.145 89.4355H119.433Z" fill="url(#paint0_linear_3_66)"/>
<path d="M63.9191 57.5525C64.8567 59.2624 66.224 60.1134 68.1524 60.5267C70.0211 60.9272 72.4696 60.9272 75.6235 60.9272H75.6856H101.861H101.922C104.98 60.9272 107.355 60.9272 109.178 60.5405C111.059 60.1416 112.404 59.3205 113.354 57.6708C114.283 56.0582 114.439 54.6555 114.022 53.116C113.624 51.6471 112.699 50.055 111.534 48.0462L111.499 47.9872C106.976 40.1934 98.6653 35.1639 88.1555 35.1639C78.9726 35.1639 71.0071 40.1591 66.2561 47.6102L66.2188 47.6688C64.9078 49.7248 63.8711 51.3506 63.3933 52.8556C62.8929 54.4322 63.0013 55.8787 63.9191 57.5525ZM114.116 90.3478C114.59 90.1529 115.17 90.0454 116.019 89.9907C116.872 89.9357 117.956 89.9355 119.433 89.9355H128.145C132.134 89.9355 135.054 89.9375 137.19 90.3358C139.294 90.7278 140.535 91.4845 141.275 92.933C142.025 94.4013 141.961 95.762 141.193 97.4818C140.407 99.2443 138.914 101.314 136.858 104.157C126.016 119.15 108.389 128.91 88.4503 128.91C55.4729 128.91 28.7521 102.19 28.7521 69.2122C28.7521 36.2349 55.4729 9.51401 88.4503 9.51401C121.428 9.51401 148.148 36.2349 148.148 69.2122C148.148 70.9319 148.143 71.6901 147.852 72.5408C147.348 74.0123 145.902 75.4586 144.43 75.9625C143.582 76.2529 142.668 76.2591 140.611 76.2591H114.629H111.739H74.6257H74.5669C71.6307 76.2591 69.349 76.259 67.5856 76.6233C65.7671 76.999 64.4488 77.7715 63.4819 79.3263C62.5347 80.8492 62.3274 82.2118 62.6507 83.7414C62.9597 85.2039 63.7573 86.8216 64.7649 88.8655L64.7938 88.924C68.7784 97.0063 76.6063 103.545 88.1088 103.26C96.7685 103.048 103.4 100.355 107.927 95.8828C109.682 94.1488 110.987 92.8596 111.99 91.9466C113.009 91.0201 113.661 90.5348 114.116 90.3478Z" stroke="#2064A9" stroke-opacity="0.1" stroke-miterlimit="10"/>
</g>
<g filter="url(#filter1_d_3_66)">
<path d="M139.436 39.4669C139.849 37.6391 143.121 35.1922 145.819 24.2846C146.585 19.5089 148.177 -5.96185 114.157 1.29023C68.5221 10.9597 43.2872 46.7484 39.2779 51.7011C31.672 61.1347 9.03139 97.572 14.9864 119.977C18.465 133.066 31.9816 133.095 42.5207 130.943C53.0598 128.791 63.2304 120.611 63.2304 120.611C63.2304 120.611 59.0295 124.576 41.8132 127.347C24.5968 130.118 22.0026 117.029 24.361 106.829C27.25 94.0933 36.6247 73.1625 66.9301 43.6825C93.8159 17.5042 122.353 2.88216 137.21 10.1342C145.111 13.9666 143.799 22.339 142.089 28.7066L139.436 39.4669Z" fill="url(#paint1_linear_3_66)" fill-opacity="0.95"/>
</g>
<defs>
<filter id="filter0_d_3_66" x="15.2521" y="0.0140076" width="146.396" height="146.396" filterUnits="userSpaceOnUse" color-interpolation-filters="sRGB">
<feFlood flood-opacity="0" result="BackgroundImageFix"/>
<feColorMatrix in="SourceAlpha" type="matrix" values="0 0 0 0 0 0 0 0 0 0 0 0 0 0 0 0 0 0 127 0" result="hardAlpha"/>
<feOffset dy="4"/>
<feGaussianBlur stdDeviation="6.5"/>
<feColorMatrix type="matrix" values="0 0 0 0 0 0 0 0 0 0 0 0 0 0 0 0 0 0 0.25 0"/>
<feBlend mode="normal" in2="BackgroundImageFix" result="effect1_dropShadow_3_66"/>
<feBlend mode="normal" in="SourceGraphic" in2="effect1_dropShadow_3_66" result="shape"/>
</filter>
<filter id="filter1_d_3_66" x="0" y="0" width="168.102" height="168" filterUnits="userSpaceOnUse" color-interpolation-filters="sRGB">
<feFlood flood-opacity="0" result="BackgroundImageFix"/>
<feColorMatrix in="SourceAlpha" type="matrix" values="0 0 0 0 0 0 0 0 0 0 0 0 0 0 0 0 0 0 127 0" result="hardAlpha"/>
<feOffset dx="4" dy="18"/>
<feGaussianBlur stdDeviation="9"/>
<feColorMatrix type="matrix" values="0 0 0 0 0 0 0 0 0 0 0 0 0 0 0 0 0 0 0.05 0"/>
<feBlend mode="normal" in2="BackgroundImageFix" result="effect1_dropShadow_3_66"/>
<feBlend mode="normal" in="SourceGraphic" in2="effect1_dropShadow_3_66" result="shape"/>
</filter>
<linearGradient id="paint0_linear_3_66" x1="7.73398" y1="-28.4846" x2="126.026" y2="107.347" gradientUnits="userSpaceOnUse">
<stop stop-color="#59BEE9"/>
<stop offset="1" stop-color="#0D79C8"/>
</linearGradient>
<linearGradient id="paint1_linear_3_66" x1="103.25" y1="-7.84856" x2="99.1223" y2="79.4123" gradientUnits="userSpaceOnUse">
<stop stop-color="#FFB700"/>
<stop offset="0.0001" stop-color="#FFCC49"/>
<stop offset="1" stop-color="#FFA800"/>
</linearGradient>
</defs>
</svg>
