<svg width="215" height="211" viewBox="0 0 215 211" fill="none" xmlns="http://www.w3.org/2000/svg">
<path d="M214.64 110.33C214.64 93.362 210.253 77.421 202.56 63.569C235.351 -10.644 167.424 0.225991 163.642 0.965991C149.251 3.78199 135.937 8.30299 123.656 14.034C121.845 13.932 120.023 13.876 118.187 13.876C72.354 13.876 33.989 45.844 24.17 88.699C48.327 61.598 65.233 50.663 75.357 46.287C73.741 47.731 72.159 49.191 70.603 50.662C70.085 51.151 69.586 51.647 69.075 52.139C68.049 53.126 67.025 54.114 66.025 55.111C65.43 55.704 64.851 56.302 64.265 56.899C63.378 57.802 62.493 58.704 61.627 59.612C61.012 60.257 60.412 60.904 59.808 61.55C58.999 62.416 58.195 63.283 57.406 64.153C56.793 64.829 56.19 65.505 55.588 66.183C54.84 67.025 54.099 67.867 53.368 68.711C52.762 69.411 52.161 70.111 51.567 70.812C50.874 71.63 50.19 72.448 49.513 73.266C48.914 73.99 48.317 74.713 47.731 75.436C47.097 76.218 46.477 76.999 45.858 77.779C45.258 78.535 44.658 79.29 44.072 80.045C43.514 80.764 42.972 81.48 42.426 82.197C41.81 83.007 41.189 83.817 40.589 84.623C40.16 85.2 39.748 85.771 39.327 86.346C35.516 91.546 32.034 96.646 28.889 101.545C28.881 101.557 28.873 101.569 28.866 101.581C28.038 102.871 27.239 104.142 26.456 105.402C26.414 105.47 26.37 105.539 26.328 105.608C25.544 106.873 24.787 108.116 24.049 109.346C24.023 109.389 23.996 109.433 23.97 109.476C21.986 112.787 20.146 115.979 18.489 118.982C9.80202 134.725 5.57302 145.724 5.39002 146.377C-22.042 244.449 63.574 203.034 75.521 196.852C88.385 203.207 102.867 206.784 118.187 206.784C160.127 206.784 195.81 180.013 209.092 142.628H158.412C150.913 155.297 136.476 163.878 119.89 163.878C95.589 163.878 75.89 145.466 75.89 122.753H213.85C214.373 118.685 214.644 114.539 214.644 110.33H214.64ZM196.622 15.414C204.928 21.02 211.59 29.824 200.149 59.473C189.176 41.826 172.667 27.983 153.045 20.374C161.971 16.063 184.076 6.94499 196.622 15.414ZM20.102 196.654C13.337 189.716 12.141 172.818 27.069 142.026C34.603 163.687 49.637 181.837 69.069 193.356C59.405 198.675 33.749 210.651 20.102 196.654ZM75.673 96.374C76.444 74.299 95.656 56.624 119.261 56.624C142.865 56.624 162.078 74.299 162.849 96.374H75.673Z" fill="white"/>
</svg>
