<svg width="2" height="22" viewBox="0 0 2 22" fill="none" xmlns="http://www.w3.org/2000/svg">
<mask id="mask0_70_54" style="mask-type:alpha" maskUnits="userSpaceOnUse" x="0" y="0" width="2" height="22">
<rect width="2" height="22" fill="#D9D9D9"/>
</mask>
<g mask="url(#mask0_70_54)">
<rect width="5" height="22" fill="white"/>
<mask id="path-3-inside-1_70_54" fill="white">
<path d="M0 -0.5C0 -1.32843 0.671573 -2 1.5 -2H3.5C4.32843 -2 5 -1.32843 5 -0.5V21H0V-0.5Z"/>
</mask>
<path d="M0 -0.5C0 -1.32843 0.671573 -2 1.5 -2H3.5C4.32843 -2 5 -1.32843 5 -0.5V21H0V-0.5Z" fill="white"/>
<path d="M-1 -0.5C-1 -1.88071 0.119288 -3 1.5 -3H3.5C4.88071 -3 6 -1.88071 6 -0.5H4C4 -0.776142 3.77614 -1 3.5 -1H1.5C1.22386 -1 1 -0.776142 1 -0.5H-1ZM5 21H0H5ZM-1 21V-0.5C-1 -1.88071 0.119288 -3 1.5 -3V-1C1.22386 -1 1 -0.776142 1 -0.5V21H-1ZM3.5 -3C4.88071 -3 6 -1.88071 6 -0.5V21H4V-0.5C4 -0.776142 3.77614 -1 3.5 -1V-3Z" fill="#898C95" mask="url(#path-3-inside-1_70_54)"/>
</g>
</svg>
