<svg width="1" height="2" viewBox="0 0 1 2" fill="none" xmlns="http://www.w3.org/2000/svg" preserveAspectRatio="none">
<mask id="mask0_77_140" style="mask-type:alpha" maskUnits="userSpaceOnUse" x="0" y="0" width="1" height="2">
<rect width="1" height="2" fill="#D9D9D9"/>
</mask>
<g mask="url(#mask0_77_140)">
<mask id="path-2-inside-1_77_140" fill="white">
<path d="M-2 1.5C-2 0.671573 -1.32843 0 -0.5 0H1.5C2.32843 0 3 0.671573 3 1.5V24H-2V1.5Z"/>
</mask>
<path d="M-2 1.5C-2 0.671573 -1.32843 0 -0.5 0H1.5C2.32843 0 3 0.671573 3 1.5V24H-2V1.5Z" fill="white"/>
<path d="M-3 1.5C-3 0.119288 -1.88071 -1 -0.5 -1H1.5C2.88071 -1 4 0.119288 4 1.5H2C2 1.22386 1.77614 1 1.5 1H-0.5C-0.776142 1 -1 1.22386 -1 1.5H-3ZM3 24H-2H3ZM-3 24V1.5C-3 0.119288 -1.88071 -1 -0.5 -1V1C-0.776142 1 -1 1.22386 -1 1.5V24H-3ZM1.5 -1C2.88071 -1 4 0.119288 4 1.5V24H2V1.5C2 1.22386 1.77614 1 1.5 1V-1Z" fill="#56A3DE" mask="url(#path-2-inside-1_77_140)"/>
<rect x="-1" y="1" width="3" height="23" fill="url(#paint0_linear_77_140)"/>
</g>
<defs>
<linearGradient id="paint0_linear_77_140" x1="0.5" y1="1.5" x2="0.5" y2="23.5" gradientUnits="userSpaceOnUse">
<stop offset="0.0692766" stop-color="white"/>
<stop offset="0.294996" stop-color="#C7E0F4"/>
<stop offset="0.49467" stop-color="#B9DAF2"/>
<stop offset="0.52264" stop-color="#A0CEED"/>
<stop offset="0.700424" stop-color="#A1CEEC"/>
<stop offset="0.728408" stop-color="#97C8EA"/>
<stop offset="0.84" stop-color="#97C8EA"/>
<stop offset="0.840895" stop-color="#ADCEF0"/>
<stop offset="0.909485" stop-color="#C1DAF3"/>
<stop offset="1" stop-color="#B0D1F3"/>
</linearGradient>
</defs>
</svg>
