<svg width="2" height="2" viewBox="0 0 2 2" fill="none" xmlns="http://www.w3.org/2000/svg">
<mask id="mask0_77_133" style="mask-type:alpha" maskUnits="userSpaceOnUse" x="0" y="0" width="2" height="2">
<rect width="2" height="2" fill="#D9D9D9"/>
</mask>
<g mask="url(#mask0_77_133)">
<mask id="path-2-inside-1_77_133" fill="white">
<path d="M0 1.5C0 0.671573 0.671573 0 1.5 0H3.5C4.32843 0 5 0.671573 5 1.5V24H0V1.5Z"/>
</mask>
<path d="M0 1.5C0 0.671573 0.671573 0 1.5 0H3.5C4.32843 0 5 0.671573 5 1.5V24H0V1.5Z" fill="white"/>
<path d="M-1 1.5C-1 0.119288 0.119288 -1 1.5 -1H3.5C4.88071 -1 6 0.119288 6 1.5H4C4 1.22386 3.77614 1 3.5 1H1.5C1.22386 1 1 1.22386 1 1.5H-1ZM5 24H0H5ZM-1 24V1.5C-1 0.119288 0.119288 -1 1.5 -1V1C1.22386 1 1 1.22386 1 1.5V24H-1ZM3.5 -1C4.88071 -1 6 0.119288 6 1.5V24H4V1.5C4 1.22386 3.77614 1 3.5 1V-1Z" fill="#56A3DE" mask="url(#path-2-inside-1_77_133)"/>
<rect x="1" y="1" width="3" height="23" fill="url(#paint0_linear_77_133)"/>
<rect y="1" width="1" height="23" fill="url(#paint1_linear_77_133)"/>
</g>
<defs>
<linearGradient id="paint0_linear_77_133" x1="2.5" y1="1.5" x2="2.5" y2="23.5" gradientUnits="userSpaceOnUse">
<stop offset="0.0692766" stop-color="white"/>
<stop offset="0.294996" stop-color="#C7E0F4"/>
<stop offset="0.49467" stop-color="#B9DAF2"/>
<stop offset="0.52264" stop-color="#A0CEED"/>
<stop offset="0.700424" stop-color="#A1CEEC"/>
<stop offset="0.728408" stop-color="#97C8EA"/>
<stop offset="0.84" stop-color="#97C8EA"/>
<stop offset="0.840895" stop-color="#ADCEF0"/>
<stop offset="0.909485" stop-color="#C1DAF3"/>
<stop offset="1" stop-color="#B0D1F3"/>
</linearGradient>
<linearGradient id="paint1_linear_77_133" x1="0.5" y1="1.5" x2="0.5" y2="23.5" gradientUnits="userSpaceOnUse">
<stop offset="0.0692766" stop-color="#F7FCFF"/>
<stop offset="0.294996" stop-color="#D8E8F6"/>
<stop offset="0.49467" stop-color="#D9EFFF"/>
<stop offset="0.52264" stop-color="#CDE5F8"/>
<stop offset="0.700424" stop-color="#C1E0F6"/>
<stop offset="0.728408" stop-color="#C2DEF2"/>
<stop offset="0.84" stop-color="#CEE6F7"/>
<stop offset="0.840895" stop-color="#DBEFFF"/>
<stop offset="0.909485" stop-color="#DBF0FF"/>
<stop offset="1" stop-color="#CFE9FE"/>
</linearGradient>
</defs>
</svg>
