<svg width="2" height="2" viewBox="0 0 2 2" fill="none" xmlns="http://www.w3.org/2000/svg">
<mask id="mask0_70_34" style="mask-type:alpha" maskUnits="userSpaceOnUse" x="0" y="0" width="2" height="2">
<rect width="2" height="2" fill="#D9D9D9"/>
</mask>
<g mask="url(#mask0_70_34)">
<mask id="path-2-inside-1_70_34" fill="white">
<path d="M0 1.5C0 0.671573 0.671573 0 1.5 0H3.5C4.32843 0 5 0.671573 5 1.5V23H0V1.5Z"/>
</mask>
<path d="M0 1.5C0 0.671573 0.671573 0 1.5 0H3.5C4.32843 0 5 0.671573 5 1.5V23H0V1.5Z" fill="white"/>
<path d="M-1 1.5C-1 0.119288 0.119288 -1 1.5 -1H3.5C4.88071 -1 6 0.119288 6 1.5H4C4 1.22386 3.77614 1 3.5 1H1.5C1.22386 1 1 1.22386 1 1.5H-1ZM5 23H0H5ZM-1 23V1.5C-1 0.119288 0.119288 -1 1.5 -1V1C1.22386 1 1 1.22386 1 1.5V23H-1ZM3.5 -1C4.88071 -1 6 0.119288 6 1.5V23H4V1.5C4 1.22386 3.77614 1 3.5 1V-1Z" fill="#898C95" mask="url(#path-2-inside-1_70_34)"/>
</g>
</svg>
