<svg width="1" height="22" viewBox="0 0 1 22" fill="none" xmlns="http://www.w3.org/2000/svg" preserveAspectRatio="none">
<mask id="mask0_77_160" style="mask-type:alpha" maskUnits="userSpaceOnUse" x="0" y="0" width="1" height="22">
<rect width="1" height="22" fill="#D9D9D9"/>
</mask>
<g mask="url(#mask0_77_160)">
<mask id="path-2-inside-1_77_160" fill="white">
<path d="M-2 -0.5C-2 -1.32843 -1.32843 -2 -0.5 -2H1.5C2.32843 -2 3 -1.32843 3 -0.5V22H-2V-0.5Z"/>
</mask>
<path d="M-2 -0.5C-2 -1.32843 -1.32843 -2 -0.5 -2H1.5C2.32843 -2 3 -1.32843 3 -0.5V22H-2V-0.5Z" fill="white"/>
<path d="M-3 -0.5C-3 -1.88071 -1.88071 -3 -0.5 -3H1.5C2.88071 -3 4 -1.88071 4 -0.5H2C2 -0.776142 1.77614 -1 1.5 -1H-0.5C-0.776142 -1 -1 -0.776142 -1 -0.5H-3ZM3 22H-2H3ZM-3 22V-0.5C-3 -1.88071 -1.88071 -3 -0.5 -3V-1C-0.776142 -1 -1 -0.776142 -1 -0.5V22H-3ZM1.5 -3C2.88071 -3 4 -1.88071 4 -0.5V22H2V-0.5C2 -0.776142 1.77614 -1 1.5 -1V-3Z" fill="#56A3DE" mask="url(#path-2-inside-1_77_160)"/>
<rect x="-1" y="-1" width="3" height="23" fill="url(#paint0_linear_77_160)"/>
</g>
<defs>
<linearGradient id="paint0_linear_77_160" x1="0.5" y1="-0.5" x2="0.5" y2="21.5" gradientUnits="userSpaceOnUse">
<stop offset="0.0692766" stop-color="white"/>
<stop offset="0.294996" stop-color="#C7E0F4"/>
<stop offset="0.49467" stop-color="#B9DAF2"/>
<stop offset="0.52264" stop-color="#A0CEED"/>
<stop offset="0.700424" stop-color="#A1CEEC"/>
<stop offset="0.728408" stop-color="#97C8EA"/>
<stop offset="0.84" stop-color="#97C8EA"/>
<stop offset="0.840895" stop-color="#ADCEF0"/>
<stop offset="0.909485" stop-color="#C1DAF3"/>
<stop offset="1" stop-color="#B0D1F3"/>
</linearGradient>
</defs>
</svg>
