<svg width="1" height="2" viewBox="0 0 1 2" fill="none" xmlns="http://www.w3.org/2000/svg" preserveAspectRatio="none">
<mask id="mask0_70_42" style="mask-type:alpha" maskUnits="userSpaceOnUse" x="0" y="0" width="1" height="2">
<rect width="1" height="2" fill="#D9D9D9"/>
</mask>
<g mask="url(#mask0_70_42)">
<mask id="path-2-inside-1_70_42" fill="white">
<path d="M-2 1.5C-2 0.671573 -1.32843 0 -0.5 0H1.5C2.32843 0 3 0.671573 3 1.5V23H-2V1.5Z"/>
</mask>
<path d="M-2 1.5C-2 0.671573 -1.32843 0 -0.5 0H1.5C2.32843 0 3 0.671573 3 1.5V23H-2V1.5Z" fill="white"/>
<path d="M-3 1.5C-3 0.119288 -1.88071 -1 -0.5 -1H1.5C2.88071 -1 4 0.119288 4 1.5H2C2 1.22386 1.77614 1 1.5 1H-0.5C-0.776142 1 -1 1.22386 -1 1.5H-3ZM3 23H-2H3ZM-3 23V1.5C-3 0.119288 -1.88071 -1 -0.5 -1V1C-0.776142 1 -1 1.22386 -1 1.5V23H-3ZM1.5 -1C2.88071 -1 4 0.119288 4 1.5V23H2V1.5C2 1.22386 1.77614 1 1.5 1V-1Z" fill="#898C95" mask="url(#path-2-inside-1_70_42)"/>
</g>
</svg>
