<svg width="2" height="22" viewBox="0 0 2 22" fill="none" xmlns="http://www.w3.org/2000/svg">
<mask id="mask0_73_113" style="mask-type:alpha" maskUnits="userSpaceOnUse" x="0" y="0" width="2" height="22">
<rect width="2" height="22" fill="#D9D9D9"/>
</mask>
<g mask="url(#mask0_73_113)">
<mask id="path-2-inside-1_73_113" fill="white">
<path d="M-3 -0.5C-3 -1.32843 -2.32843 -2 -1.5 -2H0.5C1.32843 -2 2 -1.32843 2 -0.5V22H-3V-0.5Z"/>
</mask>
<path d="M-3 -0.5C-3 -1.32843 -2.32843 -2 -1.5 -2H0.5C1.32843 -2 2 -1.32843 2 -0.5V22H-3V-0.5Z" fill="white"/>
<path d="M-4 -0.5C-4 -1.88071 -2.88071 -3 -1.5 -3H0.5C1.88071 -3 3 -1.88071 3 -0.5H1C1 -0.776142 0.776142 -1 0.5 -1H-1.5C-1.77614 -1 -2 -0.776142 -2 -0.5H-4ZM2 22H-3H2ZM-4 22V-0.5C-4 -1.88071 -2.88071 -3 -1.5 -3V-1C-1.77614 -1 -2 -0.776142 -2 -0.5V22H-4ZM0.5 -3C1.88071 -3 3 -1.88071 3 -0.5V22H1V-0.5C1 -0.776142 0.776142 -1 0.5 -1V-3Z" fill="#898C95" mask="url(#path-2-inside-1_73_113)"/>
<rect x="-2" y="-1" width="3" height="23" fill="url(#paint0_linear_73_113)"/>
</g>
<defs>
<linearGradient id="paint0_linear_73_113" x1="-0.5" y1="-0.5" x2="-0.5" y2="21.5" gradientUnits="userSpaceOnUse">
<stop offset="0.0692766" stop-color="white"/>
<stop offset="0.294996" stop-color="#D4D4D4"/>
<stop offset="0.49467" stop-color="#D1D1D1"/>
<stop offset="0.52264" stop-color="#BEBEBE"/>
<stop offset="0.700424" stop-color="#BEBEBE"/>
<stop offset="0.728408" stop-color="#C4C4C4"/>
<stop offset="0.84" stop-color="#C4C4C4"/>
<stop offset="0.840895" stop-color="#D2D2D2"/>
<stop offset="0.909485" stop-color="#D4D4D4"/>
<stop offset="1" stop-color="#CECECE"/>
</linearGradient>
</defs>
</svg>
